<?xml version="1.0" encoding="UTF-8"?><svg xmlns="http://www.w3.org/2000/svg" xmlns:xlink="http://www.w3.org/1999/xlink" fill-opacity="1" color-rendering="auto" color-interpolation="auto" text-rendering="auto" stroke="black" stroke-linecap="square" width="939" stroke-miterlimit="10" shape-rendering="auto" stroke-opacity="1" fill="black" stroke-dasharray="none" font-weight="normal" stroke-width="1" height="597" font-family="'Dialog'" font-style="normal" stroke-linejoin="miter" font-size="12px" stroke-dashoffset="0" image-rendering="auto">
  <!--Generated by ySVG 2.5-->
  <defs id="genericDefs"/>
  <g>
    <defs id="defs1">
      <clipPath clipPathUnits="userSpaceOnUse" id="clipPath1">
        <path d="M0 0 L939 0 L939 597 L0 597 L0 0 Z"/>
      </clipPath>
      <clipPath clipPathUnits="userSpaceOnUse" id="clipPath2">
        <path d="M99 -79 L1038 -79 L1038 518 L99 518 L99 -79 Z"/>
      </clipPath>
    </defs>
    <g fill="white" text-rendering="geometricPrecision" shape-rendering="geometricPrecision" transform="translate(-99,79)" stroke="white">
      <rect x="99" width="939" height="597" y="-79" clip-path="url(#clipPath2)" stroke="none"/>
    </g>
    <g fill="rgb(51,51,51)" text-rendering="geometricPrecision" shape-rendering="geometricPrecision" transform="matrix(1,0,0,1,-99,79)" stroke="rgb(51,51,51)">
      <rect x="439.9375" width="284.125" height="99" y="-64" clip-path="url(#clipPath2)" stroke="none"/>
    </g>
    <g stroke-linecap="butt" font-size="25px" transform="matrix(1,0,0,1,-99,79)" fill="white" text-rendering="geometricPrecision" font-family="'Arial'" shape-rendering="geometricPrecision" stroke="white" stroke-miterlimit="1.45">
      <text x="536.8401" xml:space="preserve" y="-35.3682" clip-path="url(#clipPath2)" stroke="none">MiniApp</text>
    </g>
    <g fill="rgb(0,204,255)" text-rendering="geometricPrecision" shape-rendering="geometricPrecision" transform="matrix(1,0,0,1,-99,79)" stroke="rgb(0,204,255)">
      <rect x="141.75" width="248.25" height="104.25" y="126.75" clip-path="url(#clipPath2)" stroke="none"/>
    </g>
    <g stroke-linecap="butt" font-size="18px" transform="matrix(1,0,0,1,-99,79)" fill="white" text-rendering="geometricPrecision" font-family="'Arial'" shape-rendering="geometricPrecision" stroke="white" stroke-miterlimit="1.45">
      <text x="191.335" xml:space="preserve" y="149.0449" clip-path="url(#clipPath2)" stroke="none">Page (e.g., /home)</text>
    </g>
    <g fill="rgb(51,51,51)" text-rendering="geometricPrecision" shape-rendering="geometricPrecision" transform="matrix(1,0,0,1,-99,79)" stroke="rgb(51,51,51)">
      <rect x="402.5" width="48" height="41" y="349" clip-path="url(#clipPath2)" stroke="none"/>
    </g>
    <g stroke-linecap="butt" font-size="18px" transform="matrix(1,0,0,1,-99,79)" fill="white" text-rendering="geometricPrecision" font-family="'Arial'" shape-rendering="geometricPrecision" stroke="white" stroke-miterlimit="1.45">
      <text x="406.9971" xml:space="preserve" y="375.7402" clip-path="url(#clipPath2)" stroke="none">.html</text>
    </g>
    <g fill="rgb(51,51,51)" text-rendering="geometricPrecision" shape-rendering="geometricPrecision" transform="matrix(1,0,0,1,-99,79)" stroke="rgb(51,51,51)">
      <rect x="459.5" width="48" height="41" y="349" clip-path="url(#clipPath2)" stroke="none"/>
    </g>
    <g stroke-linecap="butt" font-size="18px" transform="matrix(1,0,0,1,-99,79)" fill="white" text-rendering="geometricPrecision" font-family="'Arial'" shape-rendering="geometricPrecision" stroke="white" stroke-miterlimit="1.45">
      <text x="467.4995" xml:space="preserve" y="375.7402" clip-path="url(#clipPath2)" stroke="none">.css</text>
    </g>
    <g fill="rgb(51,51,51)" text-rendering="geometricPrecision" shape-rendering="geometricPrecision" transform="matrix(1,0,0,1,-99,79)" stroke="rgb(51,51,51)">
      <rect x="516.5" width="48" height="41" y="349" clip-path="url(#clipPath2)" stroke="none"/>
    </g>
    <g stroke-linecap="butt" font-size="18px" transform="matrix(1,0,0,1,-99,79)" fill="white" text-rendering="geometricPrecision" font-family="'Arial'" shape-rendering="geometricPrecision" stroke="white" stroke-miterlimit="1.45">
      <text x="531.5" xml:space="preserve" y="375.7402" clip-path="url(#clipPath2)" stroke="none">.js</text>
    </g>
    <g fill="rgb(0,204,255)" text-rendering="geometricPrecision" shape-rendering="geometricPrecision" transform="matrix(1,0,0,1,-99,79)" stroke="rgb(0,204,255)">
      <rect x="457.875" width="248.25" height="104.25" y="126.75" clip-path="url(#clipPath2)" stroke="none"/>
    </g>
    <g stroke-linecap="butt" font-size="18px" transform="matrix(1,0,0,1,-99,79)" fill="white" text-rendering="geometricPrecision" font-family="'Arial'" shape-rendering="geometricPrecision" stroke="white" stroke-miterlimit="1.45">
      <text x="500.9517" xml:space="preserve" y="149.0449" clip-path="url(#clipPath2)" stroke="none">Page (e.g., /catalog)</text>
    </g>
    <g fill="rgb(0,204,255)" text-rendering="geometricPrecision" shape-rendering="geometricPrecision" transform="matrix(1,0,0,1,-99,79)" stroke="rgb(0,204,255)">
      <rect x="774" width="248.25" height="104.25" y="126.75" clip-path="url(#clipPath2)" stroke="none"/>
    </g>
    <g stroke-linecap="butt" font-size="18px" transform="matrix(1,0,0,1,-99,79)" fill="white" text-rendering="geometricPrecision" font-family="'Arial'" shape-rendering="geometricPrecision" stroke="white" stroke-miterlimit="1.45">
      <text x="824.5825" xml:space="preserve" y="149.0449" clip-path="url(#clipPath2)" stroke="none">Page (e.g., /detail)</text>
    </g>
    <g fill="rgb(51,51,51)" text-rendering="geometricPrecision" shape-rendering="geometricPrecision" transform="matrix(1,0,0,1,-99,79)" stroke="rgb(51,51,51)">
      <rect x="212.375" width="107" height="53" y="166.75" clip-path="url(#clipPath2)" stroke="none"/>
    </g>
    <g stroke-linecap="butt" font-size="18px" transform="matrix(1,0,0,1,-99,79)" fill="white" text-rendering="geometricPrecision" font-family="'Arial'" shape-rendering="geometricPrecision" stroke="white" stroke-miterlimit="1.45">
      <text x="221.3452" xml:space="preserve" y="199.4902" clip-path="url(#clipPath2)" stroke="none">component</text>
    </g>
    <g fill="rgb(51,51,51)" text-rendering="geometricPrecision" shape-rendering="geometricPrecision" transform="matrix(1,0,0,1,-99,79)" stroke="rgb(51,51,51)">
      <rect x="430" width="107" height="53" y="278.875" clip-path="url(#clipPath2)" stroke="none"/>
    </g>
    <g stroke-linecap="butt" font-size="18px" transform="matrix(1,0,0,1,-99,79)" fill="white" text-rendering="geometricPrecision" font-family="'Arial'" shape-rendering="geometricPrecision" stroke="white" stroke-miterlimit="1.45">
      <text x="468.9893" xml:space="preserve" y="301.5605" clip-path="url(#clipPath2)" stroke="none">sub</text>
      <text x="438.9702" xml:space="preserve" y="321.6699" clip-path="url(#clipPath2)" stroke="none">component</text>
    </g>
    <g fill="rgb(51,51,51)" text-rendering="geometricPrecision" shape-rendering="geometricPrecision" transform="matrix(1,0,0,1,-99,79)" stroke="rgb(51,51,51)">
      <rect x="636.625" width="107" height="53" y="278.875" clip-path="url(#clipPath2)" stroke="none"/>
    </g>
    <g stroke-linecap="butt" font-size="18px" transform="matrix(1,0,0,1,-99,79)" fill="white" text-rendering="geometricPrecision" font-family="'Arial'" shape-rendering="geometricPrecision" stroke="white" stroke-miterlimit="1.45">
      <text x="675.6143" xml:space="preserve" y="301.5605" clip-path="url(#clipPath2)" stroke="none">sub</text>
      <text x="645.5952" xml:space="preserve" y="321.6699" clip-path="url(#clipPath2)" stroke="none">component</text>
    </g>
    <g fill="rgb(51,51,51)" text-rendering="geometricPrecision" shape-rendering="geometricPrecision" transform="matrix(1,0,0,1,-99,79)" stroke="rgb(51,51,51)">
      <rect x="609.125" width="48" height="41" y="349" clip-path="url(#clipPath2)" stroke="none"/>
    </g>
    <g stroke-linecap="butt" font-size="18px" transform="matrix(1,0,0,1,-99,79)" fill="white" text-rendering="geometricPrecision" font-family="'Arial'" shape-rendering="geometricPrecision" stroke="white" stroke-miterlimit="1.45">
      <text x="613.6221" xml:space="preserve" y="375.7402" clip-path="url(#clipPath2)" stroke="none">.html</text>
    </g>
    <g fill="rgb(51,51,51)" text-rendering="geometricPrecision" shape-rendering="geometricPrecision" transform="matrix(1,0,0,1,-99,79)" stroke="rgb(51,51,51)">
      <rect x="666.125" width="48" height="41" y="349" clip-path="url(#clipPath2)" stroke="none"/>
    </g>
    <g stroke-linecap="butt" font-size="18px" transform="matrix(1,0,0,1,-99,79)" fill="white" text-rendering="geometricPrecision" font-family="'Arial'" shape-rendering="geometricPrecision" stroke="white" stroke-miterlimit="1.45">
      <text x="674.1245" xml:space="preserve" y="375.7402" clip-path="url(#clipPath2)" stroke="none">.css</text>
    </g>
    <g fill="rgb(51,51,51)" text-rendering="geometricPrecision" shape-rendering="geometricPrecision" transform="matrix(1,0,0,1,-99,79)" stroke="rgb(51,51,51)">
      <rect x="723.125" width="48" height="41" y="349" clip-path="url(#clipPath2)" stroke="none"/>
    </g>
    <g stroke-linecap="butt" font-size="18px" transform="matrix(1,0,0,1,-99,79)" fill="white" text-rendering="geometricPrecision" font-family="'Arial'" shape-rendering="geometricPrecision" stroke="white" stroke-miterlimit="1.45">
      <text x="738.125" xml:space="preserve" y="375.7402" clip-path="url(#clipPath2)" stroke="none">.js</text>
    </g>
    <g fill="rgb(51,51,51)" text-rendering="geometricPrecision" shape-rendering="geometricPrecision" transform="matrix(1,0,0,1,-99,79)" stroke="rgb(51,51,51)">
      <rect x="528.5" width="107" height="53" y="165.5" clip-path="url(#clipPath2)" stroke="none"/>
    </g>
    <g stroke-linecap="butt" font-size="18px" transform="matrix(1,0,0,1,-99,79)" fill="white" text-rendering="geometricPrecision" font-family="'Arial'" shape-rendering="geometricPrecision" stroke="white" stroke-miterlimit="1.45">
      <text x="537.4702" xml:space="preserve" y="198.2402" clip-path="url(#clipPath2)" stroke="none">component</text>
    </g>
    <g fill="rgb(51,51,51)" text-rendering="geometricPrecision" shape-rendering="geometricPrecision" transform="matrix(1,0,0,1,-99,79)" stroke="rgb(51,51,51)">
      <rect x="844.625" width="107" height="53" y="165" clip-path="url(#clipPath2)" stroke="none"/>
    </g>
    <g stroke-linecap="butt" font-size="18px" transform="matrix(1,0,0,1,-99,79)" fill="white" text-rendering="geometricPrecision" font-family="'Arial'" shape-rendering="geometricPrecision" stroke="white" stroke-miterlimit="1.45">
      <text x="853.5952" xml:space="preserve" y="197.7402" clip-path="url(#clipPath2)" stroke="none">component</text>
    </g>
    <g fill="rgb(51,51,51)" text-rendering="geometricPrecision" shape-rendering="geometricPrecision" transform="matrix(1,0,0,1,-99,79)" stroke="rgb(51,51,51)">
      <rect x="184.875" width="48" height="41" y="249.75" clip-path="url(#clipPath2)" stroke="none"/>
    </g>
    <g stroke-linecap="butt" font-size="18px" transform="matrix(1,0,0,1,-99,79)" fill="white" text-rendering="geometricPrecision" font-family="'Arial'" shape-rendering="geometricPrecision" stroke="white" stroke-miterlimit="1.45">
      <text x="189.3721" xml:space="preserve" y="276.4902" clip-path="url(#clipPath2)" stroke="none">.html</text>
    </g>
    <g fill="rgb(51,51,51)" text-rendering="geometricPrecision" shape-rendering="geometricPrecision" transform="matrix(1,0,0,1,-99,79)" stroke="rgb(51,51,51)">
      <rect x="241.875" width="48" height="41" y="249.75" clip-path="url(#clipPath2)" stroke="none"/>
    </g>
    <g stroke-linecap="butt" font-size="18px" transform="matrix(1,0,0,1,-99,79)" fill="white" text-rendering="geometricPrecision" font-family="'Arial'" shape-rendering="geometricPrecision" stroke="white" stroke-miterlimit="1.45">
      <text x="249.8745" xml:space="preserve" y="276.4902" clip-path="url(#clipPath2)" stroke="none">.css</text>
    </g>
    <g fill="rgb(51,51,51)" text-rendering="geometricPrecision" shape-rendering="geometricPrecision" transform="matrix(1,0,0,1,-99,79)" stroke="rgb(51,51,51)">
      <rect x="298.875" width="48" height="41" y="249.75" clip-path="url(#clipPath2)" stroke="none"/>
    </g>
    <g stroke-linecap="butt" font-size="18px" transform="matrix(1,0,0,1,-99,79)" fill="white" text-rendering="geometricPrecision" font-family="'Arial'" shape-rendering="geometricPrecision" stroke="white" stroke-miterlimit="1.45">
      <text x="313.875" xml:space="preserve" y="276.4902" clip-path="url(#clipPath2)" stroke="none">.js</text>
    </g>
    <g fill="rgb(51,51,51)" text-rendering="geometricPrecision" shape-rendering="geometricPrecision" transform="matrix(1,0,0,1,-99,79)" stroke="rgb(51,51,51)">
      <rect x="844.625" width="107" height="53" y="278.875" clip-path="url(#clipPath2)" stroke="none"/>
    </g>
    <g stroke-linecap="butt" font-size="18px" transform="matrix(1,0,0,1,-99,79)" fill="white" text-rendering="geometricPrecision" font-family="'Arial'" shape-rendering="geometricPrecision" stroke="white" stroke-miterlimit="1.45">
      <text x="883.6143" xml:space="preserve" y="301.5605" clip-path="url(#clipPath2)" stroke="none">sub</text>
      <text x="853.5952" xml:space="preserve" y="321.6699" clip-path="url(#clipPath2)" stroke="none">component</text>
    </g>
    <g fill="rgb(51,51,51)" text-rendering="geometricPrecision" shape-rendering="geometricPrecision" transform="matrix(1,0,0,1,-99,79)" stroke="rgb(51,51,51)">
      <rect x="817.125" width="48" height="41" y="349" clip-path="url(#clipPath2)" stroke="none"/>
    </g>
    <g stroke-linecap="butt" font-size="18px" transform="matrix(1,0,0,1,-99,79)" fill="white" text-rendering="geometricPrecision" font-family="'Arial'" shape-rendering="geometricPrecision" stroke="white" stroke-miterlimit="1.45">
      <text x="821.6221" xml:space="preserve" y="375.7402" clip-path="url(#clipPath2)" stroke="none">.html</text>
    </g>
    <g fill="rgb(51,51,51)" text-rendering="geometricPrecision" shape-rendering="geometricPrecision" transform="matrix(1,0,0,1,-99,79)" stroke="rgb(51,51,51)">
      <rect x="874.125" width="48" height="41" y="349" clip-path="url(#clipPath2)" stroke="none"/>
    </g>
    <g stroke-linecap="butt" font-size="18px" transform="matrix(1,0,0,1,-99,79)" fill="white" text-rendering="geometricPrecision" font-family="'Arial'" shape-rendering="geometricPrecision" stroke="white" stroke-miterlimit="1.45">
      <text x="882.1245" xml:space="preserve" y="375.7402" clip-path="url(#clipPath2)" stroke="none">.css</text>
    </g>
    <g fill="rgb(51,51,51)" text-rendering="geometricPrecision" shape-rendering="geometricPrecision" transform="matrix(1,0,0,1,-99,79)" stroke="rgb(51,51,51)">
      <rect x="931.125" width="48" height="41" y="349" clip-path="url(#clipPath2)" stroke="none"/>
    </g>
    <g stroke-linecap="butt" font-size="18px" transform="matrix(1,0,0,1,-99,79)" fill="white" text-rendering="geometricPrecision" font-family="'Arial'" shape-rendering="geometricPrecision" stroke="white" stroke-miterlimit="1.45">
      <text x="946.125" xml:space="preserve" y="375.7402" clip-path="url(#clipPath2)" stroke="none">.js</text>
    </g>
    <g fill="gray" text-rendering="geometricPrecision" shape-rendering="geometricPrecision" transform="matrix(1,0,0,1,-99,79)" stroke="gray">
      <rect x="641.75" width="74.125" height="41" y="-15.5" clip-path="url(#clipPath2)" stroke="none"/>
    </g>
    <g stroke-linecap="butt" font-size="18px" transform="matrix(1,0,0,1,-99,79)" fill="white" text-rendering="geometricPrecision" font-family="'Arial'" shape-rendering="geometricPrecision" stroke="white" stroke-miterlimit="1.45">
      <text x="647.7959" xml:space="preserve" y="11.2402" clip-path="url(#clipPath2)" stroke="none">app.css</text>
    </g>
    <g fill="gray" text-rendering="geometricPrecision" shape-rendering="geometricPrecision" transform="matrix(1,0,0,1,-99,79)" stroke="gray">
      <rect x="571.5" width="60.125" height="41" y="-15.5" clip-path="url(#clipPath2)" stroke="none"/>
    </g>
    <g stroke-linecap="butt" font-size="18px" transform="matrix(1,0,0,1,-99,79)" fill="white" text-rendering="geometricPrecision" font-family="'Arial'" shape-rendering="geometricPrecision" stroke="white" stroke-miterlimit="1.45">
      <text x="577.5464" xml:space="preserve" y="11.2402" clip-path="url(#clipPath2)" stroke="none">app.js</text>
    </g>
    <g fill="gray" text-rendering="geometricPrecision" shape-rendering="geometricPrecision" transform="matrix(1,0,0,1,-99,79)" stroke="gray">
      <rect x="448.25" width="113.125" height="41" y="-15.5" clip-path="url(#clipPath2)" stroke="none"/>
    </g>
    <g stroke-linecap="butt" font-size="18px" transform="matrix(1,0,0,1,-99,79)" fill="white" text-rendering="geometricPrecision" font-family="'Arial'" shape-rendering="geometricPrecision" stroke="white" stroke-miterlimit="1.45">
      <text x="451.7881" xml:space="preserve" y="11.2402" clip-path="url(#clipPath2)" stroke="none">manifest.json</text>
    </g>
    <g fill="rgb(51,51,51)" text-rendering="geometricPrecision" shape-rendering="geometricPrecision" transform="matrix(1,0,0,1,-99,79)" stroke="rgb(51,51,51)">
      <rect x="114.375" width="189" height="41" y="462" clip-path="url(#clipPath2)" stroke="none"/>
    </g>
    <g stroke-linecap="butt" font-size="18px" transform="matrix(1,0,0,1,-99,79)" fill="white" text-rendering="geometricPrecision" font-family="'Arial'" shape-rendering="geometricPrecision" stroke="white" stroke-miterlimit="1.45">
      <text x="124.834" xml:space="preserve" y="488.7402" clip-path="url(#clipPath2)" stroke="none">./common/image.png</text>
    </g>
    <g fill="rgb(51,51,51)" text-rendering="geometricPrecision" shape-rendering="geometricPrecision" transform="matrix(1,0,0,1,-99,79)" stroke="rgb(51,51,51)">
      <rect x="332" width="189" height="41" y="462" clip-path="url(#clipPath2)" stroke="none"/>
    </g>
    <g stroke-linecap="butt" font-size="18px" transform="matrix(1,0,0,1,-99,79)" fill="white" text-rendering="geometricPrecision" font-family="'Arial'" shape-rendering="geometricPrecision" stroke="white" stroke-miterlimit="1.45">
      <text x="349.9824" xml:space="preserve" y="488.7402" clip-path="url(#clipPath2)" stroke="none">./common/style.css</text>
    </g>
    <g fill="rgb(51,51,51)" text-rendering="geometricPrecision" shape-rendering="geometricPrecision" transform="matrix(1,0,0,1,-99,79)" stroke="rgb(51,51,51)">
      <rect x="723.125" width="168" height="41" y="462" clip-path="url(#clipPath2)" stroke="none"/>
    </g>
    <g stroke-linecap="butt" font-size="18px" transform="matrix(1,0,0,1,-99,79)" fill="white" text-rendering="geometricPrecision" font-family="'Arial'" shape-rendering="geometricPrecision" stroke="white" stroke-miterlimit="1.45">
      <text x="737.6035" xml:space="preserve" y="488.7402" clip-path="url(#clipPath2)" stroke="none">./common/logic.js</text>
    </g>
    <g text-rendering="geometricPrecision" stroke-miterlimit="1.45" stroke-width="4" shape-rendering="geometricPrecision" transform="matrix(1,0,0,1,-99,79)" stroke-linecap="butt">
      <path fill="none" d="M501.0786 35 L360.4714 121.01" clip-path="url(#clipPath2)"/>
      <path d="M351.0877 126.75 L368.7507 124.0048 L361.6443 120.2925 L361.5757 112.2752 Z" clip-path="url(#clipPath2)" stroke="none"/>
      <path fill="none" d="M582 35 L582 115.75" clip-path="url(#clipPath2)"/>
      <path d="M582 126.75 L588.875 110.25 L582 114.375 L575.125 110.25 Z" clip-path="url(#clipPath2)" stroke="none"/>
      <path fill="none" d="M662.9214 35 L803.5286 121.01" clip-path="url(#clipPath2)"/>
      <path d="M812.9122 126.75 L802.4243 112.2752 L802.3557 120.2925 L795.2493 124.0048 Z" clip-path="url(#clipPath2)" stroke="none"/>
      <path fill="none" d="M459.9445 331.875 L452.0302 340.7785" clip-path="url(#clipPath2)"/>
      <path d="M444.7222 349 L460.8227 341.2352 L452.9437 339.7508 L450.5458 332.1003 Z" clip-path="url(#clipPath2)" stroke="none"/>
      <path fill="none" d="M483.5 331.875 L483.5 338" clip-path="url(#clipPath2)"/>
      <path d="M483.5 349 L490.375 332.5 L483.5 336.625 L476.625 332.5 Z" clip-path="url(#clipPath2)" stroke="none"/>
      <path fill="none" d="M507.0555 331.875 L514.9698 340.7785" clip-path="url(#clipPath2)"/>
      <path d="M522.2778 349 L516.4542 332.1003 L514.0563 339.7508 L506.1773 341.2352 Z" clip-path="url(#clipPath2)" stroke="none"/>
      <path fill="none" d="M666.5695 331.875 L658.6552 340.7785" clip-path="url(#clipPath2)"/>
      <path d="M651.3472 349 L667.4477 341.2352 L659.5687 339.7508 L657.1708 332.1003 Z" clip-path="url(#clipPath2)" stroke="none"/>
      <path fill="none" d="M690.125 331.875 L690.125 338" clip-path="url(#clipPath2)"/>
      <path d="M690.125 349 L697 332.5 L690.125 336.625 L683.25 332.5 Z" clip-path="url(#clipPath2)" stroke="none"/>
      <path fill="none" d="M713.6805 331.875 L721.5948 340.7785" clip-path="url(#clipPath2)"/>
      <path d="M728.9028 349 L723.0792 332.1003 L720.6813 339.7508 L712.8023 341.2352 Z" clip-path="url(#clipPath2)" stroke="none"/>
      <path fill="none" d="M607.2729 218.5 L657.2604 270.9147" clip-path="url(#clipPath2)"/>
      <path d="M664.8521 278.875 L658.4398 262.1898 L656.3115 269.9196 L648.4894 271.6794 Z" clip-path="url(#clipPath2)" stroke="none"/>
      <path fill="none" d="M558.9769 218.5 L513.7375 270.5712" clip-path="url(#clipPath2)"/>
      <path d="M506.5232 278.875 L522.5345 270.9282 L514.6393 269.5332 L512.1548 261.9103 Z" clip-path="url(#clipPath2)" stroke="none"/>
      <path fill="none" d="M246.2581 219.75 L230.5951 240.9088" clip-path="url(#clipPath2)"/>
      <path d="M224.0503 249.75 L239.3932 240.5787 L231.4132 239.8037 L228.3417 232.3978 Z" clip-path="url(#clipPath2)" stroke="none"/>
      <path fill="none" d="M265.875 219.75 L265.875 238.75" clip-path="url(#clipPath2)"/>
      <path d="M265.875 249.75 L272.75 233.25 L265.875 237.375 L259 233.25 Z" clip-path="url(#clipPath2)" stroke="none"/>
      <path fill="none" d="M285.4919 219.75 L301.1549 240.9088" clip-path="url(#clipPath2)"/>
      <path d="M307.6997 249.75 L303.4082 232.3978 L300.3368 239.8037 L292.3568 240.5788 Z" clip-path="url(#clipPath2)" stroke="none"/>
      <path fill="none" d="M898.125 218 L898.125 267.875" clip-path="url(#clipPath2)"/>
      <path d="M898.125 278.875 L905 262.375 L898.125 266.5 L891.25 262.375 Z" clip-path="url(#clipPath2)" stroke="none"/>
      <path fill="none" d="M874.5695 331.875 L866.6552 340.7785" clip-path="url(#clipPath2)"/>
      <path d="M859.3472 349 L875.4477 341.2352 L867.5687 339.7508 L865.1708 332.1003 Z" clip-path="url(#clipPath2)" stroke="none"/>
      <path fill="none" d="M898.125 331.875 L898.125 338" clip-path="url(#clipPath2)"/>
      <path d="M898.125 349 L905 332.5 L898.125 336.625 L891.25 332.5 Z" clip-path="url(#clipPath2)" stroke="none"/>
      <path fill="none" d="M921.6805 331.875 L929.5948 340.7785" clip-path="url(#clipPath2)"/>
      <path d="M936.9028 349 L931.0792 332.1003 L928.6813 339.7508 L920.8023 341.2352 Z" clip-path="url(#clipPath2)" stroke="none"/>
      <path fill="none" stroke-dasharray="12,4" d="M208.875 290.75 L208.875 453" stroke-width="2" clip-path="url(#clipPath2)"/>
      <path stroke-dasharray="12,4" d="M208.875 462 L214.5 448.5 L208.875 451.875 L203.25 448.5 Z" stroke-width="2" clip-path="url(#clipPath2)" stroke="none"/>
      <path fill="none" stroke-dasharray="12,4" d="M426.5 390 L265.3882 458.4794" stroke-width="2" clip-path="url(#clipPath2)"/>
      <path stroke-dasharray="12,4" d="M257.1054 462 L271.73 461.8959 L266.4236 458.0394 L267.3293 451.5424 Z" stroke-width="2" clip-path="url(#clipPath2)" stroke="none"/>
      <path fill="none" stroke-dasharray="12,4" d="M426.5 390 L426.5 453" stroke-width="2" clip-path="url(#clipPath2)"/>
      <path stroke-dasharray="12,4" d="M426.5 462 L432.125 448.5 L426.5 451.875 L420.875 448.5 Z" stroke-width="2" clip-path="url(#clipPath2)" stroke="none"/>
      <path fill="none" stroke-dasharray="12,4" d="M633.125 390 L480.507 458.3226" stroke-width="2" clip-path="url(#clipPath2)"/>
      <path stroke-dasharray="12,4" d="M472.2926 462 L486.9126 461.618 L481.5338 457.863 L482.3159 451.3499 Z" stroke-width="2" clip-path="url(#clipPath2)" stroke="none"/>
      <path fill="none" stroke-dasharray="12,4" d="M633.125 390 L760.616 457.7754" stroke-width="2" clip-path="url(#clipPath2)"/>
      <path stroke-dasharray="12,4" d="M768.5629 462 L759.283 450.6963 L759.6226 457.2473 L754.0022 460.6299 Z" stroke-width="2" clip-path="url(#clipPath2)" stroke="none"/>
      <path fill="none" stroke-dasharray="12,4" d="M834.9568 390 L815.8863 453.3817" stroke-width="2" clip-path="url(#clipPath2)"/>
      <path stroke-dasharray="12,4" d="M813.2932 462 L822.5693 450.6932 L816.2104 452.3044 L811.7964 447.4518 Z" stroke-width="2" clip-path="url(#clipPath2)" stroke="none"/>
    </g>
  </g>
</svg>
