<?xml version="1.0" encoding="UTF-8"?><svg xmlns="http://www.w3.org/2000/svg" xmlns:xlink="http://www.w3.org/1999/xlink" fill-opacity="1" color-rendering="auto" color-interpolation="auto" text-rendering="auto" stroke="black" stroke-linecap="square" width="1538" stroke-miterlimit="10" shape-rendering="auto" stroke-opacity="1" fill="black" stroke-dasharray="none" font-weight="normal" stroke-width="1" height="1080" font-family="'Dialog'" font-style="normal" stroke-linejoin="miter" font-size="12px" stroke-dashoffset="0" image-rendering="auto">
  <!--Generated by ySVG 2.5-->
  <defs id="genericDefs"/>
  <g>
    <defs id="defs1">
      <clipPath clipPathUnits="userSpaceOnUse" id="clipPath1">
        <path d="M0 0 L1538 0 L1538 1080 L0 1080 L0 0 Z"/>
      </clipPath>
      <clipPath clipPathUnits="userSpaceOnUse" id="clipPath2">
        <path d="M38 -33 L807 -33 L807 507 L38 507 L38 -33 Z"/>
      </clipPath>
    </defs>
    <g fill="rgb(255,114,98)" text-rendering="geometricPrecision" shape-rendering="geometricPrecision" transform="matrix(2,0,0,2,-76,66)" stroke="rgb(255,114,98)">
      <rect x="529.6749" width="160" height="68.25" y="205" clip-path="url(#clipPath2)" stroke="none"/>
    </g>
    <g stroke-linecap="butt" transform="matrix(2,0,0,2,-76,66)" text-rendering="geometricPrecision" shape-rendering="geometricPrecision" stroke-dasharray="12,4" stroke-width="2" stroke-miterlimit="1.45">
      <rect fill="none" x="529.6749" width="160" height="68.25" y="205" clip-path="url(#clipPath2)"/>
    </g>
    <g stroke-linecap="butt" transform="matrix(2,0,0,2,-76,66)" text-rendering="geometricPrecision" font-family="sans-serif" shape-rendering="geometricPrecision" font-weight="bold" stroke-miterlimit="1.45">
      <text x="544.3458" xml:space="preserve" y="243.8389" clip-path="url(#clipPath2)" stroke="none">MiniApp Signing Block</text>
      <text x="553.003" xml:space="preserve" y="-5.2861" clip-path="url(#clipPath2)" stroke="none">MINIAPP PACKAGE</text>
    </g>
    <g fill="rgb(132,29,108)" text-rendering="geometricPrecision" shape-rendering="geometricPrecision" transform="matrix(2,0,0,2,-76,66)" stroke="rgb(132,29,108)">
      <rect x="529.6749" width="160" height="25" y="473.25" clip-path="url(#clipPath2)" stroke="none"/>
    </g>
    <g text-rendering="geometricPrecision" stroke-miterlimit="1.45" shape-rendering="geometricPrecision" transform="matrix(2,0,0,2,-76,66)" stroke-linecap="butt">
      <rect fill="none" x="529.6749" width="160" height="25" y="473.25" clip-path="url(#clipPath2)"/>
      <text x="545.6495" y="490.4639" clip-path="url(#clipPath2)" fill="white" font-family="sans-serif" stroke="none" xml:space="preserve">End of Central Directory</text>
    </g>
    <g fill="rgb(247,177,56)" text-rendering="geometricPrecision" shape-rendering="geometricPrecision" transform="matrix(2,0,0,2,-76,66)" stroke="rgb(247,177,56)">
      <rect x="529.6749" width="160" height="50" y="423.25" clip-path="url(#clipPath2)" stroke="none"/>
    </g>
    <g text-rendering="geometricPrecision" stroke-miterlimit="1.45" shape-rendering="geometricPrecision" transform="matrix(2,0,0,2,-76,66)" stroke-linecap="butt">
      <rect fill="none" x="529.6749" width="160" height="50" y="423.25" clip-path="url(#clipPath2)"/>
      <text x="539.3096" xml:space="preserve" y="445.6133" clip-path="url(#clipPath2)" font-family="sans-serif" stroke="none">Central Directory header n</text>
      <text x="578.3214" xml:space="preserve" y="460.3145" clip-path="url(#clipPath2)" font-family="sans-serif" stroke="none">&lt;file name&gt;</text>
    </g>
    <g fill="rgb(247,177,56)" text-rendering="geometricPrecision" shape-rendering="geometricPrecision" transform="matrix(2,0,0,2,-76,66)" stroke="rgb(247,177,56)">
      <rect x="529.6749" width="160" height="50" y="373.25" clip-path="url(#clipPath2)" stroke="none"/>
    </g>
    <g text-rendering="geometricPrecision" stroke-miterlimit="1.45" shape-rendering="geometricPrecision" transform="matrix(2,0,0,2,-76,66)" stroke-linecap="butt">
      <rect fill="none" x="529.6749" width="160" height="50" y="373.25" clip-path="url(#clipPath2)"/>
      <text x="604.6739" xml:space="preserve" y="402.9639" clip-path="url(#clipPath2)" font-family="sans-serif" stroke="none">...</text>
    </g>
    <g fill="rgb(247,177,56)" text-rendering="geometricPrecision" shape-rendering="geometricPrecision" transform="matrix(2,0,0,2,-76,66)" stroke="rgb(247,177,56)">
      <rect x="529.6749" width="160" height="50" y="323.25" clip-path="url(#clipPath2)" stroke="none"/>
    </g>
    <g text-rendering="geometricPrecision" stroke-miterlimit="1.45" shape-rendering="geometricPrecision" transform="matrix(2,0,0,2,-76,66)" stroke-linecap="butt">
      <rect fill="none" x="529.6749" width="160" height="50" y="323.25" clip-path="url(#clipPath2)"/>
      <text x="539.3096" xml:space="preserve" y="345.6133" clip-path="url(#clipPath2)" font-family="sans-serif" stroke="none">Central Directory header 2</text>
      <text x="578.3214" xml:space="preserve" y="360.3145" clip-path="url(#clipPath2)" font-family="sans-serif" stroke="none">&lt;file name&gt;</text>
    </g>
    <g fill="rgb(247,177,56)" text-rendering="geometricPrecision" shape-rendering="geometricPrecision" transform="matrix(2,0,0,2,-76,66)" stroke="rgb(247,177,56)">
      <rect x="529.6749" width="160" height="50" y="273.25" clip-path="url(#clipPath2)" stroke="none"/>
    </g>
    <g text-rendering="geometricPrecision" stroke-miterlimit="1.45" shape-rendering="geometricPrecision" transform="matrix(2,0,0,2,-76,66)" stroke-linecap="butt">
      <rect fill="none" x="529.6749" width="160" height="50" y="273.25" clip-path="url(#clipPath2)"/>
      <text x="539.3096" xml:space="preserve" y="295.6133" clip-path="url(#clipPath2)" font-family="sans-serif" stroke="none">Central Directory header 1</text>
      <text x="578.3214" xml:space="preserve" y="310.3145" clip-path="url(#clipPath2)" font-family="sans-serif" stroke="none">&lt;file name&gt;</text>
    </g>
    <g fill="rgb(246,141,146)" text-rendering="geometricPrecision" shape-rendering="geometricPrecision" transform="matrix(2,0,0,2,-76,66)" stroke="rgb(246,141,146)">
      <rect x="529.6749" width="160" height="50" y="155" clip-path="url(#clipPath2)" stroke="none"/>
    </g>
    <g text-rendering="geometricPrecision" stroke-miterlimit="1.45" shape-rendering="geometricPrecision" transform="matrix(2,0,0,2,-76,66)" stroke-linecap="butt">
      <rect fill="none" x="529.6749" width="160" height="50" y="155" clip-path="url(#clipPath2)"/>
      <text x="560.6407" xml:space="preserve" y="177.3633" clip-path="url(#clipPath2)" font-family="sans-serif" stroke="none">Local file header n</text>
      <text x="581.6524" xml:space="preserve" y="192.0645" clip-path="url(#clipPath2)" font-family="sans-serif" stroke="none">&lt;file data&gt;</text>
    </g>
    <g fill="rgb(246,141,146)" text-rendering="geometricPrecision" shape-rendering="geometricPrecision" transform="matrix(2,0,0,2,-76,66)" stroke="rgb(246,141,146)">
      <rect x="529.6749" width="160" height="50" y="105" clip-path="url(#clipPath2)" stroke="none"/>
    </g>
    <g text-rendering="geometricPrecision" stroke-miterlimit="1.45" shape-rendering="geometricPrecision" transform="matrix(2,0,0,2,-76,66)" stroke-linecap="butt">
      <rect fill="none" x="529.6749" width="160" height="50" y="105" clip-path="url(#clipPath2)"/>
      <text x="604.6739" xml:space="preserve" y="134.7139" clip-path="url(#clipPath2)" font-family="sans-serif" stroke="none">...</text>
    </g>
    <g fill="rgb(246,141,146)" text-rendering="geometricPrecision" shape-rendering="geometricPrecision" transform="matrix(2,0,0,2,-76,66)" stroke="rgb(246,141,146)">
      <rect x="529.6749" width="160" height="50" y="55" clip-path="url(#clipPath2)" stroke="none"/>
    </g>
    <g text-rendering="geometricPrecision" stroke-miterlimit="1.45" shape-rendering="geometricPrecision" transform="matrix(2,0,0,2,-76,66)" stroke-linecap="butt">
      <rect fill="none" x="529.6749" width="160" height="50" y="55" clip-path="url(#clipPath2)"/>
      <text x="560.6407" xml:space="preserve" y="77.3633" clip-path="url(#clipPath2)" font-family="sans-serif" stroke="none">Local file header 2</text>
      <text x="581.6524" xml:space="preserve" y="92.0645" clip-path="url(#clipPath2)" font-family="sans-serif" stroke="none">&lt;file data&gt;</text>
    </g>
    <g fill="rgb(246,141,146)" text-rendering="geometricPrecision" shape-rendering="geometricPrecision" transform="matrix(2,0,0,2,-76,66)" stroke="rgb(246,141,146)">
      <rect x="529.6749" width="160" height="50" y="5" clip-path="url(#clipPath2)" stroke="none"/>
    </g>
    <g text-rendering="geometricPrecision" stroke-miterlimit="1.45" shape-rendering="geometricPrecision" transform="matrix(2,0,0,2,-76,66)" stroke-linecap="butt">
      <rect fill="none" x="529.6749" width="160" height="50" y="5" clip-path="url(#clipPath2)"/>
      <text x="560.6407" xml:space="preserve" y="27.3633" clip-path="url(#clipPath2)" font-family="sans-serif" stroke="none">Local file header 1</text>
      <text x="581.6524" xml:space="preserve" y="42.0645" clip-path="url(#clipPath2)" font-family="sans-serif" stroke="none">&lt;file data&gt;</text>
      <text x="137.335" y="27.3633" clip-path="url(#clipPath2)" font-family="sans-serif" stroke="none" font-weight="bold" xml:space="preserve">STANDARD</text>
      <text x="129.9961" y="42.0645" clip-path="url(#clipPath2)" font-family="sans-serif" stroke="none" font-weight="bold" xml:space="preserve">ZIP PACKAGE</text>
    </g>
    <g fill="rgb(132,29,108)" text-rendering="geometricPrecision" shape-rendering="geometricPrecision" transform="matrix(2,0,0,2,-76,66)" stroke="rgb(132,29,108)">
      <rect x="91" width="160" height="25" y="455" clip-path="url(#clipPath2)" stroke="none"/>
    </g>
    <g text-rendering="geometricPrecision" stroke-miterlimit="1.45" shape-rendering="geometricPrecision" transform="matrix(2,0,0,2,-76,66)" stroke-linecap="butt">
      <rect fill="none" x="91" width="160" height="25" y="455" clip-path="url(#clipPath2)"/>
      <text x="106.9746" y="472.2139" clip-path="url(#clipPath2)" fill="white" font-family="sans-serif" stroke="none" xml:space="preserve">End of Central Directory</text>
    </g>
    <g fill="rgb(247,177,56)" text-rendering="geometricPrecision" shape-rendering="geometricPrecision" transform="matrix(2,0,0,2,-76,66)" stroke="rgb(247,177,56)">
      <rect x="91" width="160" height="50" y="405" clip-path="url(#clipPath2)" stroke="none"/>
    </g>
    <g text-rendering="geometricPrecision" stroke-miterlimit="1.45" shape-rendering="geometricPrecision" transform="matrix(2,0,0,2,-76,66)" stroke-linecap="butt">
      <rect fill="none" x="91" width="160" height="50" y="405" clip-path="url(#clipPath2)"/>
      <text x="100.6348" xml:space="preserve" y="427.3633" clip-path="url(#clipPath2)" font-family="sans-serif" stroke="none">Central Directory header n</text>
      <text x="139.6465" xml:space="preserve" y="442.0645" clip-path="url(#clipPath2)" font-family="sans-serif" stroke="none">&lt;file name&gt;</text>
    </g>
    <g fill="rgb(247,177,56)" text-rendering="geometricPrecision" shape-rendering="geometricPrecision" transform="matrix(2,0,0,2,-76,66)" stroke="rgb(247,177,56)">
      <rect x="91" width="160" height="50" y="355" clip-path="url(#clipPath2)" stroke="none"/>
    </g>
    <g text-rendering="geometricPrecision" stroke-miterlimit="1.45" shape-rendering="geometricPrecision" transform="matrix(2,0,0,2,-76,66)" stroke-linecap="butt">
      <rect fill="none" x="91" width="160" height="50" y="355" clip-path="url(#clipPath2)"/>
      <text x="165.999" xml:space="preserve" y="384.7139" clip-path="url(#clipPath2)" font-family="sans-serif" stroke="none">...</text>
    </g>
    <g fill="rgb(247,177,56)" text-rendering="geometricPrecision" shape-rendering="geometricPrecision" transform="matrix(2,0,0,2,-76,66)" stroke="rgb(247,177,56)">
      <rect x="91" width="160" height="50" y="305" clip-path="url(#clipPath2)" stroke="none"/>
    </g>
    <g text-rendering="geometricPrecision" stroke-miterlimit="1.45" shape-rendering="geometricPrecision" transform="matrix(2,0,0,2,-76,66)" stroke-linecap="butt">
      <rect fill="none" x="91" width="160" height="50" y="305" clip-path="url(#clipPath2)"/>
      <text x="100.6348" xml:space="preserve" y="327.3633" clip-path="url(#clipPath2)" font-family="sans-serif" stroke="none">Central Directory header 2</text>
      <text x="139.6465" xml:space="preserve" y="342.0645" clip-path="url(#clipPath2)" font-family="sans-serif" stroke="none">&lt;file name&gt;</text>
    </g>
    <g fill="rgb(247,177,56)" text-rendering="geometricPrecision" shape-rendering="geometricPrecision" transform="matrix(2,0,0,2,-76,66)" stroke="rgb(247,177,56)">
      <rect x="91" width="160" height="50" y="255" clip-path="url(#clipPath2)" stroke="none"/>
    </g>
    <g text-rendering="geometricPrecision" stroke-miterlimit="1.45" shape-rendering="geometricPrecision" transform="matrix(2,0,0,2,-76,66)" stroke-linecap="butt">
      <rect fill="none" x="91" width="160" height="50" y="255" clip-path="url(#clipPath2)"/>
      <text x="100.6348" xml:space="preserve" y="277.3633" clip-path="url(#clipPath2)" font-family="sans-serif" stroke="none">Central Directory header 1</text>
      <text x="139.6465" xml:space="preserve" y="292.0645" clip-path="url(#clipPath2)" font-family="sans-serif" stroke="none">&lt;file name&gt;</text>
    </g>
    <g fill="rgb(246,141,146)" text-rendering="geometricPrecision" shape-rendering="geometricPrecision" transform="matrix(2,0,0,2,-76,66)" stroke="rgb(246,141,146)">
      <rect x="91" width="160" height="50" y="205" clip-path="url(#clipPath2)" stroke="none"/>
    </g>
    <g text-rendering="geometricPrecision" stroke-miterlimit="1.45" shape-rendering="geometricPrecision" transform="matrix(2,0,0,2,-76,66)" stroke-linecap="butt">
      <rect fill="none" x="91" width="160" height="50" y="205" clip-path="url(#clipPath2)"/>
      <text x="121.9658" xml:space="preserve" y="227.3633" clip-path="url(#clipPath2)" font-family="sans-serif" stroke="none">Local file header n</text>
      <text x="142.9775" xml:space="preserve" y="242.0645" clip-path="url(#clipPath2)" font-family="sans-serif" stroke="none">&lt;file data&gt;</text>
    </g>
    <g fill="rgb(246,141,146)" text-rendering="geometricPrecision" shape-rendering="geometricPrecision" transform="matrix(2,0,0,2,-76,66)" stroke="rgb(246,141,146)">
      <rect x="91" width="160" height="50" y="155" clip-path="url(#clipPath2)" stroke="none"/>
    </g>
    <g text-rendering="geometricPrecision" stroke-miterlimit="1.45" shape-rendering="geometricPrecision" transform="matrix(2,0,0,2,-76,66)" stroke-linecap="butt">
      <rect fill="none" x="91" width="160" height="50" y="155" clip-path="url(#clipPath2)"/>
      <text x="165.999" xml:space="preserve" y="184.7139" clip-path="url(#clipPath2)" font-family="sans-serif" stroke="none">...</text>
    </g>
    <g fill="rgb(246,141,146)" text-rendering="geometricPrecision" shape-rendering="geometricPrecision" transform="matrix(2,0,0,2,-76,66)" stroke="rgb(246,141,146)">
      <rect x="91" width="160" height="50" y="105" clip-path="url(#clipPath2)" stroke="none"/>
    </g>
    <g text-rendering="geometricPrecision" stroke-miterlimit="1.45" shape-rendering="geometricPrecision" transform="matrix(2,0,0,2,-76,66)" stroke-linecap="butt">
      <rect fill="none" x="91" width="160" height="50" y="105" clip-path="url(#clipPath2)"/>
      <text x="121.9658" xml:space="preserve" y="127.3633" clip-path="url(#clipPath2)" font-family="sans-serif" stroke="none">Local file header 2</text>
      <text x="142.9775" xml:space="preserve" y="142.0645" clip-path="url(#clipPath2)" font-family="sans-serif" stroke="none">&lt;file data&gt;</text>
    </g>
    <g fill="rgb(246,141,146)" text-rendering="geometricPrecision" shape-rendering="geometricPrecision" transform="matrix(2,0,0,2,-76,66)" stroke="rgb(246,141,146)">
      <rect x="91" width="160" height="50" y="55" clip-path="url(#clipPath2)" stroke="none"/>
    </g>
    <g text-rendering="geometricPrecision" stroke-miterlimit="1.45" shape-rendering="geometricPrecision" transform="matrix(2,0,0,2,-76,66)" stroke-linecap="butt">
      <rect fill="none" x="91" width="160" height="50" y="55" clip-path="url(#clipPath2)"/>
      <text x="121.9658" xml:space="preserve" y="77.3633" clip-path="url(#clipPath2)" font-family="sans-serif" stroke="none">Local file header 1</text>
      <text x="142.9775" xml:space="preserve" y="92.0645" clip-path="url(#clipPath2)" font-family="sans-serif" stroke="none">&lt;file data&gt;</text>
      <rect x="529.6749" y="255" clip-path="url(#clipPath2)" fill="none" width="160" stroke-dasharray="6,2" height="18.25"/>
      <text x="542.3184" xml:space="preserve" y="268.8389" clip-path="url(#clipPath2)" font-family="sans-serif" stroke="none">Magic Number (16 bytes)</text>
      <path fill="none" d="M529.6749 485.75 L484.6749 485.75 L484.6749 283.25 L521.6514 283.25" clip-path="url(#clipPath2)"/>
      <path d="M529.6514 283.25 L517.6514 278.25 L520.6514 283.25 L517.6514 288.25 Z" clip-path="url(#clipPath2)" stroke="none"/>
      <rect x="491.3252" y="476.3994" clip-path="url(#clipPath2)" fill="white" width="33.3496" height="18.7012" stroke="none"/>
      <text x="493.3253" xml:space="preserve" y="490.4639" clip-path="url(#clipPath2)" font-family="sans-serif" stroke="none">offset</text>
      <path fill="none" d="M689.6749 448.25 L737.6749 448.25 L737.6749 164 L697.6827 164" clip-path="url(#clipPath2)"/>
      <path d="M689.6827 164 L701.6827 169 L698.6827 164 L701.6827 159 Z" clip-path="url(#clipPath2)" stroke="none"/>
      <rect x="699.9913" y="419.1598" clip-path="url(#clipPath2)" fill="white" width="75.3672" height="18.7012" stroke="none"/>
      <text x="701.9913" xml:space="preserve" y="433.2243" clip-path="url(#clipPath2)" font-family="sans-serif" stroke="none">relative offset</text>
      <path fill="none" d="M689.6749 348.25 L783.6749 348.25 L783.6749 64.6794 L697.7086 64.6794" clip-path="url(#clipPath2)"/>
      <path d="M689.7086 64.6794 L701.7086 69.6794 L698.7086 64.6794 L701.7086 59.6794 Z" clip-path="url(#clipPath2)" stroke="none"/>
      <rect x="694.6749" y="338.8994" clip-path="url(#clipPath2)" fill="white" width="75.3672" height="18.7012" stroke="none"/>
      <text x="696.6749" xml:space="preserve" y="352.9639" clip-path="url(#clipPath2)" font-family="sans-serif" stroke="none">relative offset</text>
      <path fill="none" d="M689.6749 298.25 L798.6749 298.25 L798.6749 14.5581 L697.6997 14.5581" clip-path="url(#clipPath2)"/>
      <path d="M689.6997 14.5581 L701.6997 19.5581 L698.6997 14.5581 L701.6997 9.5581 Z" clip-path="url(#clipPath2)" stroke="none"/>
      <rect x="694.6749" y="288.8994" clip-path="url(#clipPath2)" fill="white" width="75.3672" height="18.7012" stroke="none"/>
      <text x="696.6749" xml:space="preserve" y="302.9639" clip-path="url(#clipPath2)" font-family="sans-serif" stroke="none">relative offset</text>
      <path fill="none" d="M91 467.5 L46 467.5 L46 265 L82.9766 265" clip-path="url(#clipPath2)"/>
      <path d="M90.9766 265 L78.9766 260 L81.9766 265 L78.9766 270 Z" clip-path="url(#clipPath2)" stroke="none"/>
      <rect x="52.6504" y="458.1494" clip-path="url(#clipPath2)" fill="white" width="33.3496" height="18.7012" stroke="none"/>
      <text x="54.6504" xml:space="preserve" y="472.2139" clip-path="url(#clipPath2)" font-family="sans-serif" stroke="none">offset</text>
      <path fill="none" d="M251 430 L299 430 L299 214 L259.0078 214" clip-path="url(#clipPath2)"/>
      <path d="M251.0078 214 L263.0078 219 L260.0078 214 L263.0078 209 Z" clip-path="url(#clipPath2)" stroke="none"/>
      <rect x="261.3164" y="405.6494" clip-path="url(#clipPath2)" fill="white" width="75.3672" height="18.7012" stroke="none"/>
      <text x="263.3164" xml:space="preserve" y="419.7139" clip-path="url(#clipPath2)" font-family="sans-serif" stroke="none">relative offset</text>
      <path fill="none" d="M251 330 L345 330 L345 114.6794 L259.0338 114.6794" clip-path="url(#clipPath2)"/>
      <path d="M251.0338 114.6794 L263.0338 119.6794 L260.0338 114.6794 L263.0338 109.6794 Z" clip-path="url(#clipPath2)" stroke="none"/>
      <rect x="256" y="320.6494" clip-path="url(#clipPath2)" fill="white" width="75.3672" height="18.7012" stroke="none"/>
      <text x="258" xml:space="preserve" y="334.7139" clip-path="url(#clipPath2)" font-family="sans-serif" stroke="none">relative offset</text>
      <path fill="none" d="M251 280 L360 280 L360 64.5581 L259.0248 64.5581" clip-path="url(#clipPath2)"/>
      <path d="M251.0248 64.5581 L263.0248 69.5581 L260.0248 64.5581 L263.0248 59.5581 Z" clip-path="url(#clipPath2)" stroke="none"/>
      <rect x="256" y="270.6494" clip-path="url(#clipPath2)" fill="white" width="75.3672" height="18.7012" stroke="none"/>
      <text x="258" xml:space="preserve" y="284.7139" clip-path="url(#clipPath2)" font-family="sans-serif" stroke="none">relative offset</text>
    </g>
  </g>
</svg>
