<?xml version="1.0" encoding="UTF-8"?><svg xmlns="http://www.w3.org/2000/svg" xmlns:xlink="http://www.w3.org/1999/xlink" fill-opacity="1" color-rendering="auto" color-interpolation="auto" text-rendering="auto" stroke="black" stroke-linecap="square" width="1112" stroke-miterlimit="10" shape-rendering="auto" stroke-opacity="1" fill="black" stroke-dasharray="none" font-weight="normal" stroke-width="1" height="444" font-family="'Dialog'" font-style="normal" stroke-linejoin="miter" font-size="12px" stroke-dashoffset="0" image-rendering="auto">
  <!--Generated by ySVG 2.5-->
  <defs id="genericDefs"/>
  <g>
    <defs id="defs1">
      <clipPath clipPathUnits="userSpaceOnUse" id="clipPath1">
        <path d="M0 0 L1112 0 L1112 444 L0 444 L0 0 Z"/>
      </clipPath>
      <clipPath clipPathUnits="userSpaceOnUse" id="clipPath2">
        <path d="M142 555 L698 555 L698 777 L142 777 L142 555 Z"/>
      </clipPath>
    </defs>
    <g fill="rgb(246,141,146)" text-rendering="geometricPrecision" shape-rendering="geometricPrecision" transform="matrix(2,0,0,2,-284,-1110)" stroke="rgb(246,141,146)">
      <rect x="150.2955" width="160" height="50" y="606.3822" clip-path="url(#clipPath2)" stroke="none"/>
    </g>
    <g text-rendering="geometricPrecision" stroke-miterlimit="1.45" shape-rendering="geometricPrecision" transform="matrix(2,0,0,2,-284,-1110)" stroke-linecap="butt">
      <rect fill="none" x="150.2955" width="160" height="50" y="606.3822" clip-path="url(#clipPath2)"/>
      <text x="171.9332" xml:space="preserve" y="636.0961" clip-path="url(#clipPath2)" font-family="sans-serif" stroke="none">Content of ZIP entries</text>
    </g>
    <g fill="rgb(247,177,56)" text-rendering="geometricPrecision" shape-rendering="geometricPrecision" transform="matrix(2,0,0,2,-284,-1110)" stroke="rgb(247,177,56)">
      <rect x="150.2955" width="160" height="50" y="656.3822" clip-path="url(#clipPath2)" stroke="none"/>
    </g>
    <g text-rendering="geometricPrecision" stroke-miterlimit="1.45" shape-rendering="geometricPrecision" transform="matrix(2,0,0,2,-284,-1110)" stroke-linecap="butt">
      <rect fill="none" x="150.2955" width="160" height="50" y="656.3822" clip-path="url(#clipPath2)"/>
      <text x="183.6168" xml:space="preserve" y="686.0961" clip-path="url(#clipPath2)" font-family="sans-serif" stroke="none">Central Directory </text>
    </g>
    <g fill="rgb(132,29,108)" text-rendering="geometricPrecision" shape-rendering="geometricPrecision" transform="matrix(2,0,0,2,-284,-1110)" stroke="rgb(132,29,108)">
      <rect x="150.2955" width="160" height="25" y="706.3822" clip-path="url(#clipPath2)" stroke="none"/>
    </g>
    <g text-rendering="geometricPrecision" stroke-miterlimit="1.45" shape-rendering="geometricPrecision" transform="matrix(2,0,0,2,-284,-1110)" stroke-linecap="butt">
      <rect fill="none" x="150.2955" width="160" height="25" y="706.3822" clip-path="url(#clipPath2)"/>
      <text x="166.2701" y="723.5961" clip-path="url(#clipPath2)" fill="white" font-family="sans-serif" stroke="none" xml:space="preserve">End of Central Directory</text>
      <text x="196.6305" y="583.0444" clip-path="url(#clipPath2)" font-family="sans-serif" stroke="none" font-weight="bold" xml:space="preserve">STANDARD</text>
      <text x="189.2916" y="597.7455" clip-path="url(#clipPath2)" font-family="sans-serif" stroke="none" font-weight="bold" xml:space="preserve">ZIP PACKAGE</text>
    </g>
    <g fill="rgb(246,141,146)" text-rendering="geometricPrecision" shape-rendering="geometricPrecision" transform="matrix(2,0,0,2,-284,-1110)" stroke="rgb(246,141,146)">
      <rect x="529.6749" width="160" height="50" y="593.8822" clip-path="url(#clipPath2)" stroke="none"/>
    </g>
    <g text-rendering="geometricPrecision" stroke-miterlimit="1.45" shape-rendering="geometricPrecision" transform="matrix(2,0,0,2,-284,-1110)" stroke-linecap="butt">
      <rect fill="none" x="529.6749" width="160" height="50" y="593.8822" clip-path="url(#clipPath2)"/>
      <text x="551.3126" xml:space="preserve" y="623.5961" clip-path="url(#clipPath2)" font-family="sans-serif" stroke="none">Content of ZIP entries</text>
    </g>
    <g fill="rgb(247,177,56)" text-rendering="geometricPrecision" shape-rendering="geometricPrecision" transform="matrix(2,0,0,2,-284,-1110)" stroke="rgb(247,177,56)">
      <rect x="529.6749" width="160" height="50" y="693.8822" clip-path="url(#clipPath2)" stroke="none"/>
    </g>
    <g text-rendering="geometricPrecision" stroke-miterlimit="1.45" shape-rendering="geometricPrecision" transform="matrix(2,0,0,2,-284,-1110)" stroke-linecap="butt">
      <rect fill="none" x="529.6749" width="160" height="50" y="693.8822" clip-path="url(#clipPath2)"/>
      <text x="562.9962" xml:space="preserve" y="723.5961" clip-path="url(#clipPath2)" font-family="sans-serif" stroke="none">Central Directory </text>
    </g>
    <g fill="rgb(132,29,108)" text-rendering="geometricPrecision" shape-rendering="geometricPrecision" transform="matrix(2,0,0,2,-284,-1110)" stroke="rgb(132,29,108)">
      <rect x="529.6749" width="160" height="25" y="743.8822" clip-path="url(#clipPath2)" stroke="none"/>
    </g>
    <g text-rendering="geometricPrecision" stroke-miterlimit="1.45" shape-rendering="geometricPrecision" transform="matrix(2,0,0,2,-284,-1110)" stroke-linecap="butt">
      <rect fill="none" x="529.6749" width="160" height="25" y="743.8822" clip-path="url(#clipPath2)"/>
      <text x="545.6495" y="761.0961" clip-path="url(#clipPath2)" fill="white" font-family="sans-serif" stroke="none" xml:space="preserve">End of Central Directory</text>
    </g>
    <g fill="rgb(255,114,98)" text-rendering="geometricPrecision" shape-rendering="geometricPrecision" transform="matrix(2,0,0,2,-284,-1110)" stroke="rgb(255,114,98)">
      <rect x="529.6749" width="160" height="50" y="643.8822" clip-path="url(#clipPath2)" stroke="none"/>
    </g>
    <g stroke-linecap="butt" transform="matrix(2,0,0,2,-284,-1110)" text-rendering="geometricPrecision" shape-rendering="geometricPrecision" stroke-dasharray="12,4" stroke-width="2" stroke-miterlimit="1.45">
      <rect fill="none" x="529.6749" width="160" height="50" y="643.8822" clip-path="url(#clipPath2)"/>
    </g>
    <g stroke-linecap="butt" transform="matrix(2,0,0,2,-284,-1110)" text-rendering="geometricPrecision" font-family="sans-serif" shape-rendering="geometricPrecision" font-weight="bold" stroke-miterlimit="1.45">
      <text x="544.3458" xml:space="preserve" y="673.5961" clip-path="url(#clipPath2)" stroke="none">MiniApp Signing Block</text>
      <text x="553.003" xml:space="preserve" y="583.5961" clip-path="url(#clipPath2)" stroke="none">MINIAPP PACKAGE</text>
    </g>
  </g>
</svg>
