<?xml version="1.0" encoding="UTF-8"?><svg xmlns="http://www.w3.org/2000/svg" xmlns:xlink="http://www.w3.org/1999/xlink" fill-opacity="1" color-rendering="auto" color-interpolation="auto" text-rendering="auto" stroke="black" stroke-linecap="square" width="2266" stroke-miterlimit="10" shape-rendering="auto" stroke-opacity="1" fill="black" stroke-dasharray="none" font-weight="normal" stroke-width="1" height="1304" font-family="'Dialog'" font-style="normal" stroke-linejoin="miter" font-size="12px" stroke-dashoffset="0" image-rendering="auto">
  <!--Generated by ySVG 2.5-->
  <defs id="genericDefs"/>
  <g>
    <defs id="defs1">
      <clipPath clipPathUnits="userSpaceOnUse" id="clipPath1">
        <path d="M0 0 L2266 0 L2266 1304 L0 1304 L0 0 Z"/>
      </clipPath>
      <clipPath clipPathUnits="userSpaceOnUse" id="clipPath2">
        <path d="M-168 823 L965 823 L965 1475 L-168 1475 L-168 823 Z"/>
      </clipPath>
      <clipPath clipPathUnits="userSpaceOnUse" id="clipPath3">
        <path d="M222.4009 -869.1494 L222.4009 263.8506 L-429.5992 263.8506 L-429.5992 -869.1494 L222.4009 -869.1494 Z"/>
      </clipPath>
      <clipPath clipPathUnits="userSpaceOnUse" id="clipPath4">
        <path d="M455.8926 -865.3994 L455.8926 267.6006 L-196.1074 267.6006 L-196.1074 -865.3994 L455.8926 -865.3994 Z"/>
      </clipPath>
      <clipPath clipPathUnits="userSpaceOnUse" id="clipPath5">
        <path d="M495.4182 -1105.3994 L495.4182 27.6006 L-156.5818 27.6006 L-156.5818 -1105.3994 L495.4182 -1105.3994 Z"/>
      </clipPath>
    </defs>
    <g fill="rgb(51,83,35)" text-rendering="geometricPrecision" shape-rendering="geometricPrecision" transform="matrix(2,0,0,2,336,-1646)" stroke="rgb(51,83,35)">
      <rect x="-159.25" width="160" height="18.25" y="1123.375" clip-path="url(#clipPath2)" stroke="none"/>
    </g>
    <g stroke-linecap="butt" transform="matrix(2,0,0,2,336,-1646)" fill="white" text-rendering="geometricPrecision" font-family="sans-serif" shape-rendering="geometricPrecision" stroke="white" stroke-miterlimit="1.45">
      <text x="-153.25" xml:space="preserve" y="1137.2139" clip-path="url(#clipPath2)" stroke="none">/i18n/</text>
    </g>
    <g fill="rgb(51,83,35)" text-rendering="geometricPrecision" shape-rendering="geometricPrecision" transform="matrix(2,0,0,2,336,-1646)" stroke="rgb(51,83,35)">
      <rect x="-159.25" width="160" height="18.25" y="1196.375" clip-path="url(#clipPath2)" stroke="none"/>
    </g>
    <g stroke-linecap="butt" transform="matrix(2,0,0,2,336,-1646)" fill="white" text-rendering="geometricPrecision" font-family="sans-serif" shape-rendering="geometricPrecision" stroke="white" stroke-miterlimit="1.45">
      <text x="-153.25" xml:space="preserve" y="1210.2139" clip-path="url(#clipPath2)" stroke="none">/pages/</text>
    </g>
    <g fill="rgb(51,83,35)" text-rendering="geometricPrecision" shape-rendering="geometricPrecision" transform="matrix(2,0,0,2,336,-1646)" stroke="rgb(51,83,35)">
      <rect x="-159.25" width="160" height="18.25" y="1214.625" clip-path="url(#clipPath2)" stroke="none"/>
    </g>
    <g stroke-linecap="butt" transform="matrix(2,0,0,2,336,-1646)" fill="white" text-rendering="geometricPrecision" font-family="sans-serif" shape-rendering="geometricPrecision" stroke="white" stroke-miterlimit="1.45">
      <text x="-153.25" xml:space="preserve" y="1228.4639" clip-path="url(#clipPath2)" stroke="none">        |- page.js</text>
    </g>
    <g fill="rgb(51,83,35)" text-rendering="geometricPrecision" shape-rendering="geometricPrecision" transform="matrix(2,0,0,2,336,-1646)" stroke="rgb(51,83,35)">
      <rect x="-159.25" width="160" height="18.25" y="1232.875" clip-path="url(#clipPath2)" stroke="none"/>
    </g>
    <g stroke-linecap="butt" transform="matrix(2,0,0,2,336,-1646)" fill="white" text-rendering="geometricPrecision" font-family="sans-serif" shape-rendering="geometricPrecision" stroke="white" stroke-miterlimit="1.45">
      <text x="-153.25" xml:space="preserve" y="1246.7139" clip-path="url(#clipPath2)" stroke="none">        |- page.xml</text>
    </g>
    <g fill="rgb(51,83,35)" text-rendering="geometricPrecision" shape-rendering="geometricPrecision" transform="matrix(2,0,0,2,336,-1646)" stroke="rgb(51,83,35)">
      <rect x="-159.25" width="160" height="18.25" y="1251.125" clip-path="url(#clipPath2)" stroke="none"/>
    </g>
    <g stroke-linecap="butt" transform="matrix(2,0,0,2,336,-1646)" fill="white" text-rendering="geometricPrecision" font-family="sans-serif" shape-rendering="geometricPrecision" stroke="white" stroke-miterlimit="1.45">
      <text x="-153.25" xml:space="preserve" y="1264.9639" clip-path="url(#clipPath2)" stroke="none">        |- page.json</text>
    </g>
    <g fill="rgb(51,83,35)" text-rendering="geometricPrecision" shape-rendering="geometricPrecision" transform="matrix(2,0,0,2,336,-1646)" stroke="rgb(51,83,35)">
      <rect x="-159.25" width="160" height="18.25" y="1269.375" clip-path="url(#clipPath2)" stroke="none"/>
    </g>
    <g stroke-linecap="butt" transform="matrix(2,0,0,2,336,-1646)" fill="white" text-rendering="geometricPrecision" font-family="sans-serif" shape-rendering="geometricPrecision" stroke="white" stroke-miterlimit="1.45">
      <text x="-153.25" xml:space="preserve" y="1283.2139" clip-path="url(#clipPath2)" stroke="none">        |- page.css</text>
    </g>
    <g fill="rgb(51,83,35)" text-rendering="geometricPrecision" shape-rendering="geometricPrecision" transform="matrix(2,0,0,2,336,-1646)" stroke="rgb(51,83,35)">
      <rect x="-159.25" width="160" height="18.25" y="1178.125" clip-path="url(#clipPath2)" stroke="none"/>
    </g>
    <g stroke-linecap="butt" transform="matrix(2,0,0,2,336,-1646)" fill="white" text-rendering="geometricPrecision" font-family="sans-serif" shape-rendering="geometricPrecision" stroke="white" stroke-miterlimit="1.45">
      <text x="-153.25" xml:space="preserve" y="1191.9639" clip-path="url(#clipPath2)" stroke="none">/common/</text>
    </g>
    <g fill="rgb(51,83,35)" text-rendering="geometricPrecision" shape-rendering="geometricPrecision" transform="matrix(2,0,0,2,336,-1646)" stroke="rgb(51,83,35)">
      <rect x="-159.25" width="160" height="18.25" y="1159.875" clip-path="url(#clipPath2)" stroke="none"/>
    </g>
    <g stroke-linecap="butt" transform="matrix(2,0,0,2,336,-1646)" fill="white" text-rendering="geometricPrecision" font-family="sans-serif" shape-rendering="geometricPrecision" stroke="white" stroke-miterlimit="1.45">
      <text x="-153.25" xml:space="preserve" y="1173.7139" clip-path="url(#clipPath2)" stroke="none">        |- zh-Hans.json</text>
    </g>
    <g fill="rgb(51,83,35)" text-rendering="geometricPrecision" shape-rendering="geometricPrecision" transform="matrix(2,0,0,2,336,-1646)" stroke="rgb(51,83,35)">
      <rect x="-159.25" width="160" height="18.25" y="1141.625" clip-path="url(#clipPath2)" stroke="none"/>
    </g>
    <g stroke-linecap="butt" transform="matrix(2,0,0,2,336,-1646)" fill="white" text-rendering="geometricPrecision" font-family="sans-serif" shape-rendering="geometricPrecision" stroke="white" stroke-miterlimit="1.45">
      <text x="-153.25" xml:space="preserve" y="1155.4639" clip-path="url(#clipPath2)" stroke="none">        |- en-US.json</text>
    </g>
    <g fill="rgb(51,83,35)" text-rendering="geometricPrecision" shape-rendering="geometricPrecision" transform="matrix(2,0,0,2,336,-1646)" stroke="rgb(51,83,35)">
      <rect x="-159.25" width="160" height="18.25" y="1068.625" clip-path="url(#clipPath2)" stroke="none"/>
    </g>
    <g stroke-linecap="butt" transform="matrix(2,0,0,2,336,-1646)" fill="white" text-rendering="geometricPrecision" font-family="sans-serif" shape-rendering="geometricPrecision" stroke="white" stroke-miterlimit="1.45">
      <text x="-153.25" xml:space="preserve" y="1082.4639" clip-path="url(#clipPath2)" stroke="none">/manifest.json</text>
    </g>
    <g fill="rgb(51,83,35)" text-rendering="geometricPrecision" shape-rendering="geometricPrecision" transform="matrix(2,0,0,2,336,-1646)" stroke="rgb(51,83,35)">
      <rect x="-159.25" width="160" height="18.25" y="1086.875" clip-path="url(#clipPath2)" stroke="none"/>
    </g>
    <g stroke-linecap="butt" transform="matrix(2,0,0,2,336,-1646)" fill="white" text-rendering="geometricPrecision" font-family="sans-serif" shape-rendering="geometricPrecision" stroke="white" stroke-miterlimit="1.45">
      <text x="-153.25" xml:space="preserve" y="1100.7139" clip-path="url(#clipPath2)" stroke="none">/app.js</text>
    </g>
    <g fill="rgb(51,83,35)" text-rendering="geometricPrecision" shape-rendering="geometricPrecision" transform="matrix(2,0,0,2,336,-1646)" stroke="rgb(51,83,35)">
      <rect x="-159.25" width="160" height="18.25" y="1105.125" clip-path="url(#clipPath2)" stroke="none"/>
    </g>
    <g stroke-linecap="butt" transform="matrix(2,0,0,2,336,-1646)" fill="white" text-rendering="geometricPrecision" font-family="sans-serif" shape-rendering="geometricPrecision" stroke="white" stroke-miterlimit="1.45">
      <text x="-153.25" xml:space="preserve" y="1118.9639" clip-path="url(#clipPath2)" stroke="none">/app.css</text>
      <text x="-105.9189" y="1039.2383" clip-path="url(#clipPath2)" fill="black" stroke="none" font-weight="bold" xml:space="preserve">MINIAPP </text>
      <text x="-118.5869" y="1053.9395" clip-path="url(#clipPath2)" fill="black" stroke="none" font-weight="bold" xml:space="preserve">FILE SYSTEM</text>
    </g>
    <g fill="rgb(255,114,98)" text-rendering="geometricPrecision" shape-rendering="geometricPrecision" transform="matrix(2,0,0,2,336,-1646)" stroke="rgb(255,114,98)">
      <rect x="536.75" width="160" height="50" y="1265.625" clip-path="url(#clipPath2)" stroke="none"/>
    </g>
    <g text-rendering="geometricPrecision" stroke-miterlimit="1.45" shape-rendering="geometricPrecision" transform="matrix(2,0,0,2,336,-1646)" stroke-linecap="butt">
      <rect fill="none" x="536.75" width="160" height="50" y="1265.625" clip-path="url(#clipPath2)"/>
    </g>
    <g fill="rgb(255,114,98)" text-rendering="geometricPrecision" shape-rendering="geometricPrecision" transform="matrix(2,0,0,2,336,-1646)" stroke="rgb(255,114,98)">
      <rect x="536.75" width="160" height="25" y="1027" clip-path="url(#clipPath2)" stroke="none"/>
    </g>
    <g text-rendering="geometricPrecision" stroke-miterlimit="1.45" shape-rendering="geometricPrecision" transform="matrix(2,0,0,2,336,-1646)" stroke-linecap="butt">
      <rect fill="none" x="536.75" width="160" height="25" y="1027" clip-path="url(#clipPath2)"/>
      <text x="564.7334" xml:space="preserve" y="1044.2139" clip-path="url(#clipPath2)" font-family="sans-serif" stroke="none">Block size (8 bytes)</text>
    </g>
    <g fill="rgb(255,114,98)" text-rendering="geometricPrecision" shape-rendering="geometricPrecision" transform="matrix(2,0,0,2,336,-1646)" stroke="rgb(255,114,98)">
      <rect x="536.75" width="160" height="50" y="1052" clip-path="url(#clipPath2)" stroke="none"/>
    </g>
    <g text-rendering="geometricPrecision" stroke-miterlimit="1.45" shape-rendering="geometricPrecision" transform="matrix(2,0,0,2,336,-1646)" stroke-linecap="butt">
      <rect fill="none" x="536.75" width="160" height="50" y="1052" clip-path="url(#clipPath2)"/>
      <text x="566.8047" xml:space="preserve" y="1074.3633" clip-path="url(#clipPath2)" font-family="sans-serif" stroke="none">"MIX Sig Block 42"</text>
      <text x="590.0723" xml:space="preserve" y="1089.0645" clip-path="url(#clipPath2)" font-family="sans-serif" stroke="none">(16 bytes)</text>
    </g>
    <g fill="rgb(255,114,98)" text-rendering="geometricPrecision" shape-rendering="geometricPrecision" transform="matrix(2,0,0,2,336,-1646)" stroke="rgb(255,114,98)">
      <rect x="536.75" width="160" height="99.5" y="927.5" clip-path="url(#clipPath2)" stroke="none"/>
    </g>
    <g text-rendering="geometricPrecision" stroke-miterlimit="1.45" shape-rendering="geometricPrecision" transform="matrix(2,0,0,2,336,-1646)" stroke-linecap="butt">
      <rect fill="none" x="536.75" width="160" height="99.5" y="927.5" clip-path="url(#clipPath2)"/>
    </g>
    <g fill="rgb(255,114,98)" text-rendering="geometricPrecision" shape-rendering="geometricPrecision" transform="matrix(2,0,0,2,336,-1646)" stroke="rgb(255,114,98)">
      <rect x="536.75" width="160" height="25" y="902.5" clip-path="url(#clipPath2)" stroke="none"/>
    </g>
    <g text-rendering="geometricPrecision" stroke-miterlimit="1.45" shape-rendering="geometricPrecision" transform="matrix(2,0,0,2,336,-1646)" stroke-linecap="butt">
      <rect fill="none" x="536.75" width="160" height="25" y="902.5" clip-path="url(#clipPath2)"/>
      <text x="564.7334" xml:space="preserve" y="919.7139" clip-path="url(#clipPath2)" font-family="sans-serif" stroke="none">Block size (8 bytes)</text>
    </g>
    <g fill="rgb(246,141,146)" text-rendering="geometricPrecision" shape-rendering="geometricPrecision" transform="matrix(2,0,0,2,336,-1646)" stroke="rgb(246,141,146)">
      <rect x="309.75" width="160" height="50" y="927.375" clip-path="url(#clipPath2)" stroke="none"/>
    </g>
    <g text-rendering="geometricPrecision" stroke-miterlimit="1.45" shape-rendering="geometricPrecision" transform="matrix(2,0,0,2,336,-1646)" stroke-linecap="butt">
      <rect fill="none" x="309.75" width="160" height="50" y="927.375" clip-path="url(#clipPath2)"/>
      <text x="331.3877" xml:space="preserve" y="957.0889" clip-path="url(#clipPath2)" font-family="sans-serif" stroke="none">Content of ZIP entries</text>
    </g>
    <g fill="rgb(247,177,56)" text-rendering="geometricPrecision" shape-rendering="geometricPrecision" transform="matrix(2,0,0,2,336,-1646)" stroke="rgb(247,177,56)">
      <rect x="309.75" width="160" height="50" y="1027.375" clip-path="url(#clipPath2)" stroke="none"/>
    </g>
    <g text-rendering="geometricPrecision" stroke-miterlimit="1.45" shape-rendering="geometricPrecision" transform="matrix(2,0,0,2,336,-1646)" stroke-linecap="butt">
      <rect fill="none" x="309.75" width="160" height="50" y="1027.375" clip-path="url(#clipPath2)"/>
      <text x="343.0713" xml:space="preserve" y="1057.0889" clip-path="url(#clipPath2)" font-family="sans-serif" stroke="none">Central Directory </text>
    </g>
    <g fill="rgb(132,29,108)" text-rendering="geometricPrecision" shape-rendering="geometricPrecision" transform="matrix(2,0,0,2,336,-1646)" stroke="rgb(132,29,108)">
      <rect x="309.75" width="160" height="25" y="1077.375" clip-path="url(#clipPath2)" stroke="none"/>
    </g>
    <g text-rendering="geometricPrecision" stroke-miterlimit="1.45" shape-rendering="geometricPrecision" transform="matrix(2,0,0,2,336,-1646)" stroke-linecap="butt">
      <rect fill="none" x="309.75" width="160" height="25" y="1077.375" clip-path="url(#clipPath2)"/>
      <text x="325.7246" y="1094.5889" clip-path="url(#clipPath2)" fill="white" font-family="sans-serif" stroke="none" xml:space="preserve">End of Central Directory</text>
    </g>
    <g fill="rgb(255,114,98)" text-rendering="geometricPrecision" shape-rendering="geometricPrecision" transform="matrix(2,0,0,2,336,-1646)" stroke="rgb(255,114,98)">
      <rect x="309.75" width="160" height="50" y="977.375" clip-path="url(#clipPath2)" stroke="none"/>
    </g>
    <g text-rendering="geometricPrecision" stroke-miterlimit="1.45" shape-rendering="geometricPrecision" transform="matrix(2,0,0,2,336,-1646)" stroke-linecap="butt">
      <rect fill="none" x="309.75" width="160" height="50" y="977.375" clip-path="url(#clipPath2)"/>
      <text x="330.0518" xml:space="preserve" y="999.7383" clip-path="url(#clipPath2)" font-family="sans-serif" stroke="none">MiniApp Signing Block</text>
      <text x="377.4131" xml:space="preserve" y="1014.4395" clip-path="url(#clipPath2)" font-family="sans-serif" stroke="none">RPK</text>
    </g>
    <g fill="rgb(153,204,0)" text-rendering="geometricPrecision" shape-rendering="geometricPrecision" transform="matrix(2,0,0,2,336,-1646)" stroke="rgb(153,204,0)">
      <rect x="763.75" width="160" height="31.75" y="861.375" clip-path="url(#clipPath2)" stroke="none"/>
    </g>
    <g text-rendering="geometricPrecision" stroke-miterlimit="1.45" shape-rendering="geometricPrecision" transform="matrix(2,0,0,2,336,-1646)" stroke-linecap="butt">
      <rect fill="none" x="763.75" width="160" height="31.75" y="861.375" clip-path="url(#clipPath2)"/>
      <text x="788.7275" xml:space="preserve" y="881.9639" clip-path="url(#clipPath2)" font-family="sans-serif" stroke="none">Size of pair (8 bytes)</text>
    </g>
    <g fill="rgb(153,204,0)" text-rendering="geometricPrecision" shape-rendering="geometricPrecision" transform="matrix(2,0,0,2,336,-1646)" stroke="rgb(153,204,0)">
      <rect x="763.75" width="160" height="18.25" y="893.125" clip-path="url(#clipPath2)" stroke="none"/>
    </g>
    <g text-rendering="geometricPrecision" stroke-miterlimit="1.45" shape-rendering="geometricPrecision" transform="matrix(2,0,0,2,336,-1646)" stroke-linecap="butt">
      <rect fill="none" x="763.75" width="160" height="18.25" y="893.125" clip-path="url(#clipPath2)"/>
      <text x="812.7422" xml:space="preserve" y="906.9639" clip-path="url(#clipPath2)" font-family="sans-serif" stroke="none">ID (4 bytes)</text>
    </g>
    <g fill="rgb(153,204,0)" text-rendering="geometricPrecision" shape-rendering="geometricPrecision" transform="matrix(2,0,0,2,336,-1646)" stroke="rgb(153,204,0)">
      <rect x="763.75" width="160" height="50" y="911.375" clip-path="url(#clipPath2)" stroke="none"/>
    </g>
    <g text-rendering="geometricPrecision" stroke-miterlimit="1.45" shape-rendering="geometricPrecision" transform="matrix(2,0,0,2,336,-1646)" stroke-linecap="butt">
      <rect fill="none" x="763.75" width="160" height="50" y="911.375" clip-path="url(#clipPath2)"/>
      <text x="790.7285" xml:space="preserve" y="941.0889" clip-path="url(#clipPath2)" font-family="sans-serif" stroke="none">Value (size-4 bytes)</text>
    </g>
    <g fill="rgb(153,204,0)" text-rendering="geometricPrecision" shape-rendering="geometricPrecision" transform="matrix(2,0,0,2,336,-1646)" stroke="rgb(153,204,0)">
      <rect x="763.75" width="160" height="31.75" y="961.375" clip-path="url(#clipPath2)" stroke="none"/>
    </g>
    <g text-rendering="geometricPrecision" stroke-miterlimit="1.45" shape-rendering="geometricPrecision" transform="matrix(2,0,0,2,336,-1646)" stroke-linecap="butt">
      <rect fill="none" x="763.75" width="160" height="31.75" y="961.375" clip-path="url(#clipPath2)"/>
      <text x="838.749" xml:space="preserve" y="981.9639" clip-path="url(#clipPath2)" font-family="sans-serif" stroke="none">...</text>
    </g>
    <g fill="rgb(153,204,0)" text-rendering="geometricPrecision" shape-rendering="geometricPrecision" transform="matrix(2,0,0,2,336,-1646)" stroke="rgb(153,204,0)">
      <rect x="763.75" width="160" height="31.75" y="993.125" clip-path="url(#clipPath2)" stroke="none"/>
    </g>
    <g text-rendering="geometricPrecision" stroke-miterlimit="1.45" shape-rendering="geometricPrecision" transform="matrix(2,0,0,2,336,-1646)" stroke-linecap="butt">
      <rect fill="none" x="763.75" width="160" height="31.75" y="993.125" clip-path="url(#clipPath2)"/>
      <text x="788.7275" xml:space="preserve" y="1013.7139" clip-path="url(#clipPath2)" font-family="sans-serif" stroke="none">Size of pair (8 bytes)</text>
    </g>
    <g fill="rgb(153,204,0)" text-rendering="geometricPrecision" shape-rendering="geometricPrecision" transform="matrix(2,0,0,2,336,-1646)" stroke="rgb(153,204,0)">
      <rect x="763.75" width="160" height="18.25" y="1024.875" clip-path="url(#clipPath2)" stroke="none"/>
    </g>
    <g text-rendering="geometricPrecision" stroke-miterlimit="1.45" shape-rendering="geometricPrecision" transform="matrix(2,0,0,2,336,-1646)" stroke-linecap="butt">
      <rect fill="none" x="763.75" width="160" height="18.25" y="1024.875" clip-path="url(#clipPath2)"/>
      <text x="812.7422" xml:space="preserve" y="1038.7139" clip-path="url(#clipPath2)" font-family="sans-serif" stroke="none">ID (4 bytes)</text>
    </g>
    <g fill="rgb(153,204,0)" text-rendering="geometricPrecision" shape-rendering="geometricPrecision" transform="matrix(2,0,0,2,336,-1646)" stroke="rgb(153,204,0)">
      <rect x="763.75" width="160" height="50" y="1043.125" clip-path="url(#clipPath2)" stroke="none"/>
    </g>
    <g text-rendering="geometricPrecision" stroke-miterlimit="1.45" shape-rendering="geometricPrecision" transform="matrix(2,0,0,2,336,-1646)" stroke-linecap="butt">
      <rect fill="none" x="763.75" width="160" height="50" y="1043.125" clip-path="url(#clipPath2)"/>
      <text x="790.7285" xml:space="preserve" y="1072.8389" clip-path="url(#clipPath2)" font-family="sans-serif" stroke="none">Value (size-4 bytes)</text>
      <text x="333.0781" y="917.0889" clip-path="url(#clipPath2)" font-family="sans-serif" stroke="none" font-weight="bold" xml:space="preserve">MINIAPP PACKAGE</text>
      <text x="795.416" y="851.0889" clip-path="url(#clipPath2)" font-family="sans-serif" stroke="none" font-weight="bold" xml:space="preserve">SIGNING BLOCK</text>
    </g>
    <g fill="rgb(255,114,98)" text-rendering="geometricPrecision" shape-rendering="geometricPrecision" transform="matrix(2,0,0,2,336,-1646)" stroke="rgb(255,114,98)">
      <rect x="536.75" width="160" height="25" y="1340.875" clip-path="url(#clipPath2)" stroke="none"/>
    </g>
    <g text-rendering="geometricPrecision" stroke-miterlimit="1.45" shape-rendering="geometricPrecision" transform="matrix(2,0,0,2,336,-1646)" stroke-linecap="butt">
      <rect fill="none" x="536.75" width="160" height="25" y="1340.875" clip-path="url(#clipPath2)"/>
      <text x="556.7295" xml:space="preserve" y="1358.0889" clip-path="url(#clipPath2)" font-family="sans-serif" stroke="none">Num of block (4 bytes)</text>
    </g>
    <g fill="rgb(255,114,98)" text-rendering="geometricPrecision" shape-rendering="geometricPrecision" transform="matrix(2,0,0,2,336,-1646)" stroke="rgb(255,114,98)">
      <rect x="536.75" width="160" height="50" y="1416.25" clip-path="url(#clipPath2)" stroke="none"/>
    </g>
    <g text-rendering="geometricPrecision" stroke-miterlimit="1.45" shape-rendering="geometricPrecision" transform="matrix(2,0,0,2,336,-1646)" stroke-linecap="butt">
      <rect fill="none" x="536.75" width="160" height="50" y="1416.25" clip-path="url(#clipPath2)"/>
      <text x="554.7871" xml:space="preserve" y="1438.6133" clip-path="url(#clipPath2)" font-family="sans-serif" stroke="none">"”hw signed app\0\0\0”"</text>
      <text x="590.0723" xml:space="preserve" y="1453.3145" clip-path="url(#clipPath2)" font-family="sans-serif" stroke="none">(16 bytes)</text>
    </g>
    <g fill="rgb(255,114,98)" text-rendering="geometricPrecision" shape-rendering="geometricPrecision" transform="matrix(2,0,0,2,336,-1646)" stroke="rgb(255,114,98)">
      <rect x="536.75" width="160" height="25" y="1190.875" clip-path="url(#clipPath2)" stroke="none"/>
    </g>
    <g text-rendering="geometricPrecision" stroke-miterlimit="1.45" shape-rendering="geometricPrecision" transform="matrix(2,0,0,2,336,-1646)" stroke-linecap="butt">
      <rect fill="none" x="536.75" width="160" height="25" y="1190.875" clip-path="url(#clipPath2)"/>
      <text x="569.0547" xml:space="preserve" y="1208.0889" clip-path="url(#clipPath2)" font-family="sans-serif" stroke="none">Profile block head</text>
    </g>
    <g fill="rgb(246,141,146)" text-rendering="geometricPrecision" shape-rendering="geometricPrecision" transform="matrix(2,0,0,2,336,-1646)" stroke="rgb(246,141,146)">
      <rect x="75.25" width="160" height="50" y="1115.5" clip-path="url(#clipPath2)" stroke="none"/>
    </g>
    <g text-rendering="geometricPrecision" stroke-miterlimit="1.45" shape-rendering="geometricPrecision" transform="matrix(2,0,0,2,336,-1646)" stroke-linecap="butt">
      <rect fill="none" x="75.25" width="160" height="50" y="1115.5" clip-path="url(#clipPath2)"/>
      <text x="96.8877" xml:space="preserve" y="1145.2139" clip-path="url(#clipPath2)" font-family="sans-serif" stroke="none">Content of ZIP entries</text>
    </g>
    <g fill="rgb(247,177,56)" text-rendering="geometricPrecision" shape-rendering="geometricPrecision" transform="matrix(2,0,0,2,336,-1646)" stroke="rgb(247,177,56)">
      <rect x="75.25" width="160" height="50" y="1165.5" clip-path="url(#clipPath2)" stroke="none"/>
    </g>
    <g text-rendering="geometricPrecision" stroke-miterlimit="1.45" shape-rendering="geometricPrecision" transform="matrix(2,0,0,2,336,-1646)" stroke-linecap="butt">
      <rect fill="none" x="75.25" width="160" height="50" y="1165.5" clip-path="url(#clipPath2)"/>
      <text x="108.5713" xml:space="preserve" y="1195.2139" clip-path="url(#clipPath2)" font-family="sans-serif" stroke="none">Central Directory </text>
    </g>
    <g fill="rgb(132,29,108)" text-rendering="geometricPrecision" shape-rendering="geometricPrecision" transform="matrix(2,0,0,2,336,-1646)" stroke="rgb(132,29,108)">
      <rect x="75.25" width="160" height="25" y="1215.5" clip-path="url(#clipPath2)" stroke="none"/>
    </g>
    <g text-rendering="geometricPrecision" stroke-miterlimit="1.45" shape-rendering="geometricPrecision" transform="matrix(2,0,0,2,336,-1646)" stroke-linecap="butt">
      <rect fill="none" x="75.25" width="160" height="25" y="1215.5" clip-path="url(#clipPath2)"/>
      <text x="91.2246" y="1232.7139" clip-path="url(#clipPath2)" fill="white" font-family="sans-serif" stroke="none" xml:space="preserve">End of Central Directory</text>
    </g>
    <g fill="rgb(246,141,146)" text-rendering="geometricPrecision" shape-rendering="geometricPrecision" transform="matrix(2,0,0,2,336,-1646)" stroke="rgb(246,141,146)">
      <rect x="309.75" width="160" height="50" y="1253.5" clip-path="url(#clipPath2)" stroke="none"/>
    </g>
    <g text-rendering="geometricPrecision" stroke-miterlimit="1.45" shape-rendering="geometricPrecision" transform="matrix(2,0,0,2,336,-1646)" stroke-linecap="butt">
      <rect fill="none" x="309.75" width="160" height="50" y="1253.5" clip-path="url(#clipPath2)"/>
      <text x="331.3877" xml:space="preserve" y="1283.2139" clip-path="url(#clipPath2)" font-family="sans-serif" stroke="none">Content of ZIP entries</text>
    </g>
    <g fill="rgb(247,177,56)" text-rendering="geometricPrecision" shape-rendering="geometricPrecision" transform="matrix(2,0,0,2,336,-1646)" stroke="rgb(247,177,56)">
      <rect x="309.75" width="160" height="50" y="1353.5" clip-path="url(#clipPath2)" stroke="none"/>
    </g>
    <g text-rendering="geometricPrecision" stroke-miterlimit="1.45" shape-rendering="geometricPrecision" transform="matrix(2,0,0,2,336,-1646)" stroke-linecap="butt">
      <rect fill="none" x="309.75" width="160" height="50" y="1353.5" clip-path="url(#clipPath2)"/>
      <text x="343.0713" xml:space="preserve" y="1383.2139" clip-path="url(#clipPath2)" font-family="sans-serif" stroke="none">Central Directory </text>
    </g>
    <g fill="rgb(132,29,108)" text-rendering="geometricPrecision" shape-rendering="geometricPrecision" transform="matrix(2,0,0,2,336,-1646)" stroke="rgb(132,29,108)">
      <rect x="309.75" width="160" height="25" y="1403.5" clip-path="url(#clipPath2)" stroke="none"/>
    </g>
    <g text-rendering="geometricPrecision" stroke-miterlimit="1.45" shape-rendering="geometricPrecision" transform="matrix(2,0,0,2,336,-1646)" stroke-linecap="butt">
      <rect fill="none" x="309.75" width="160" height="25" y="1403.5" clip-path="url(#clipPath2)"/>
      <text x="325.7246" y="1420.7139" clip-path="url(#clipPath2)" fill="white" font-family="sans-serif" stroke="none" xml:space="preserve">End of Central Directory</text>
    </g>
    <g fill="rgb(255,114,98)" text-rendering="geometricPrecision" shape-rendering="geometricPrecision" transform="matrix(2,0,0,2,336,-1646)" stroke="rgb(255,114,98)">
      <rect x="309.75" width="160" height="50" y="1303.5" clip-path="url(#clipPath2)" stroke="none"/>
    </g>
    <g text-rendering="geometricPrecision" stroke-miterlimit="1.45" shape-rendering="geometricPrecision" transform="matrix(2,0,0,2,336,-1646)" stroke-linecap="butt">
      <rect fill="none" x="309.75" width="160" height="50" y="1303.5" clip-path="url(#clipPath2)"/>
      <text x="330.0518" xml:space="preserve" y="1325.8633" clip-path="url(#clipPath2)" font-family="sans-serif" stroke="none">MiniApp Signing Block</text>
      <text x="366.7373" xml:space="preserve" y="1340.5645" clip-path="url(#clipPath2)" font-family="sans-serif" stroke="none">PKCS#7</text>
    </g>
    <g fill="rgb(153,204,0)" text-rendering="geometricPrecision" shape-rendering="geometricPrecision" transform="matrix(2,0,0,2,336,-1646)" stroke="rgb(153,204,0)">
      <rect x="763.75" width="160" height="31.75" y="1274.75" clip-path="url(#clipPath2)" stroke="none"/>
    </g>
    <g text-rendering="geometricPrecision" stroke-miterlimit="1.45" shape-rendering="geometricPrecision" transform="matrix(2,0,0,2,336,-1646)" stroke-linecap="butt">
      <rect fill="none" x="763.75" width="160" height="31.75" y="1274.75" clip-path="url(#clipPath2)"/>
      <text x="829.7432" xml:space="preserve" y="1295.3389" clip-path="url(#clipPath2)" font-family="sans-serif" stroke="none">Hash</text>
      <text x="131.25" y="1105.2139" clip-path="url(#clipPath2)" font-family="sans-serif" stroke="none" font-weight="bold" xml:space="preserve">ZIP FILE</text>
      <text x="333.0781" y="1243.2139" clip-path="url(#clipPath2)" font-family="sans-serif" stroke="none" font-weight="bold" xml:space="preserve">MINIAPP PACKAGE</text>
      <text x="777.085" y="1173.0371" clip-path="url(#clipPath2)" font-family="sans-serif" stroke="none" font-weight="bold" xml:space="preserve">SIGNING BLOCK DATA</text>
      <text x="816.4102" y="1187.7383" clip-path="url(#clipPath2)" font-family="sans-serif" stroke="none" font-weight="bold" xml:space="preserve">(PKCS#7)</text>
    </g>
    <g fill="rgb(255,114,98)" text-rendering="geometricPrecision" shape-rendering="geometricPrecision" transform="matrix(2,0,0,2,336,-1646)" stroke="rgb(255,114,98)">
      <rect x="536.75" width="160" height="25" y="1215.875" clip-path="url(#clipPath2)" stroke="none"/>
    </g>
    <g text-rendering="geometricPrecision" stroke-miterlimit="1.45" shape-rendering="geometricPrecision" transform="matrix(2,0,0,2,336,-1646)" stroke-linecap="butt">
      <rect fill="none" x="536.75" width="160" height="25" y="1215.875" clip-path="url(#clipPath2)"/>
      <text x="560.377" xml:space="preserve" y="1233.0889" clip-path="url(#clipPath2)" font-family="sans-serif" stroke="none">Signature block head</text>
    </g>
    <g fill="rgb(255,114,98)" text-rendering="geometricPrecision" shape-rendering="geometricPrecision" transform="matrix(2,0,0,2,336,-1646)" stroke="rgb(255,114,98)">
      <rect x="536.75" width="160" height="25" y="1240.875" clip-path="url(#clipPath2)" stroke="none"/>
    </g>
    <g text-rendering="geometricPrecision" stroke-miterlimit="1.45" shape-rendering="geometricPrecision" transform="matrix(2,0,0,2,336,-1646)" stroke-linecap="butt">
      <rect fill="none" x="536.75" width="160" height="25" y="1240.875" clip-path="url(#clipPath2)"/>
      <text x="604.0762" xml:space="preserve" y="1258.0889" clip-path="url(#clipPath2)" font-family="sans-serif" stroke="none">Data</text>
    </g>
    <g fill="rgb(153,204,0)" text-rendering="geometricPrecision" shape-rendering="geometricPrecision" transform="matrix(2,0,0,2,336,-1646)" stroke="rgb(153,204,0)">
      <rect x="544.25" width="146.25" height="31.75" y="1274.75" clip-path="url(#clipPath2)" stroke="none"/>
    </g>
    <g text-rendering="geometricPrecision" stroke-miterlimit="1.45" shape-rendering="geometricPrecision" transform="matrix(2,0,0,2,336,-1646)" stroke-linecap="butt">
      <rect fill="none" x="544.25" width="146.25" height="31.75" y="1274.75" clip-path="url(#clipPath2)"/>
      <text x="568.3408" xml:space="preserve" y="1287.9883" clip-path="url(#clipPath2)" font-family="sans-serif" stroke="none">Signing block data</text>
      <text x="594.3623" xml:space="preserve" y="1302.6895" clip-path="url(#clipPath2)" font-family="sans-serif" stroke="none">PKCS#7</text>
    </g>
    <g fill="rgb(255,114,98)" text-rendering="geometricPrecision" shape-rendering="geometricPrecision" transform="matrix(2,0,0,2,336,-1646)" stroke="rgb(255,114,98)">
      <rect x="536.75" width="160" height="25" y="1366" clip-path="url(#clipPath2)" stroke="none"/>
    </g>
    <g text-rendering="geometricPrecision" stroke-miterlimit="1.45" shape-rendering="geometricPrecision" transform="matrix(2,0,0,2,336,-1646)" stroke-linecap="butt">
      <rect fill="none" x="536.75" width="160" height="25" y="1366" clip-path="url(#clipPath2)"/>
      <text x="564.7334" xml:space="preserve" y="1383.2139" clip-path="url(#clipPath2)" font-family="sans-serif" stroke="none">Block size (4 bytes)</text>
    </g>
    <g fill="rgb(255,114,98)" text-rendering="geometricPrecision" shape-rendering="geometricPrecision" transform="matrix(2,0,0,2,336,-1646)" stroke="rgb(255,114,98)">
      <rect x="536.75" width="160" height="25" y="1391.25" clip-path="url(#clipPath2)" stroke="none"/>
    </g>
    <g text-rendering="geometricPrecision" stroke-miterlimit="1.45" shape-rendering="geometricPrecision" transform="matrix(2,0,0,2,336,-1646)" stroke-linecap="butt">
      <rect fill="none" x="536.75" width="160" height="25" y="1391.25" clip-path="url(#clipPath2)"/>
      <text x="571.3984" xml:space="preserve" y="1408.4639" clip-path="url(#clipPath2)" font-family="sans-serif" stroke="none">Version (4 bytes)</text>
    </g>
    <g fill="rgb(255,114,98)" text-rendering="geometricPrecision" shape-rendering="geometricPrecision" transform="matrix(2,0,0,2,336,-1646)" stroke="rgb(255,114,98)">
      <rect x="536.75" width="160" height="25" y="1315.875" clip-path="url(#clipPath2)" stroke="none"/>
    </g>
    <g text-rendering="geometricPrecision" stroke-miterlimit="1.45" shape-rendering="geometricPrecision" transform="matrix(2,0,0,2,336,-1646)" stroke-linecap="butt">
      <rect fill="none" x="536.75" width="160" height="25" y="1315.875" clip-path="url(#clipPath2)"/>
      <text x="569.4004" xml:space="preserve" y="1333.0889" clip-path="url(#clipPath2)" font-family="sans-serif" stroke="none">Reserve (4 bytes)</text>
    </g>
    <g fill="rgb(153,204,0)" text-rendering="geometricPrecision" shape-rendering="geometricPrecision" transform="matrix(2,0,0,2,336,-1646)" stroke="rgb(153,204,0)">
      <rect x="763.75" width="160" height="25" y="1201.375" clip-path="url(#clipPath2)" stroke="none"/>
    </g>
    <g text-rendering="geometricPrecision" stroke-miterlimit="1.45" shape-rendering="geometricPrecision" transform="matrix(2,0,0,2,336,-1646)" stroke-linecap="butt">
      <rect fill="none" x="763.75" width="160" height="25" y="1201.375" clip-path="url(#clipPath2)"/>
      <text x="823.4062" xml:space="preserve" y="1218.5889" clip-path="url(#clipPath2)" font-family="sans-serif" stroke="none">Version</text>
    </g>
    <g fill="rgb(153,204,0)" text-rendering="geometricPrecision" shape-rendering="geometricPrecision" transform="matrix(2,0,0,2,336,-1646)" stroke="rgb(153,204,0)">
      <rect x="763.75" width="160" height="25" y="1226.375" clip-path="url(#clipPath2)" stroke="none"/>
    </g>
    <g text-rendering="geometricPrecision" stroke-miterlimit="1.45" shape-rendering="geometricPrecision" transform="matrix(2,0,0,2,336,-1646)" stroke-linecap="butt">
      <rect fill="none" x="763.75" width="160" height="25" y="1226.375" clip-path="url(#clipPath2)"/>
      <text x="816.7412" xml:space="preserve" y="1243.5889" clip-path="url(#clipPath2)" font-family="sans-serif" stroke="none">Block size</text>
    </g>
    <g fill="rgb(153,204,0)" text-rendering="geometricPrecision" shape-rendering="geometricPrecision" transform="matrix(2,0,0,2,336,-1646)" stroke="rgb(153,204,0)">
      <rect x="763.75" width="160" height="25" y="1251.5" clip-path="url(#clipPath2)" stroke="none"/>
    </g>
    <g text-rendering="geometricPrecision" stroke-miterlimit="1.45" shape-rendering="geometricPrecision" transform="matrix(2,0,0,2,336,-1646)" stroke-linecap="butt">
      <rect fill="none" x="763.75" width="160" height="25" y="1251.5" clip-path="url(#clipPath2)"/>
      <text x="782.3877" xml:space="preserve" y="1268.7139" clip-path="url(#clipPath2)" font-family="sans-serif" stroke="none">Number of hash blocks</text>
    </g>
    <g fill="rgb(153,204,0)" text-rendering="geometricPrecision" shape-rendering="geometricPrecision" transform="matrix(2,0,0,2,336,-1646)" stroke="rgb(153,204,0)">
      <rect x="763.75" width="160" height="33.75" y="1340.25" clip-path="url(#clipPath2)" stroke="none"/>
    </g>
    <g text-rendering="geometricPrecision" stroke-miterlimit="1.45" shape-rendering="geometricPrecision" transform="matrix(2,0,0,2,336,-1646)" stroke-linecap="butt">
      <rect fill="none" x="763.75" width="160" height="33.75" y="1340.25" clip-path="url(#clipPath2)"/>
      <text x="829.7432" xml:space="preserve" y="1361.8389" clip-path="url(#clipPath2)" font-family="sans-serif" stroke="none">Hash</text>
    </g>
    <g fill="rgb(153,204,0)" text-rendering="geometricPrecision" shape-rendering="geometricPrecision" transform="matrix(2,0,0,2,336,-1646)" stroke="rgb(153,204,0)">
      <rect x="763.75" width="160" height="33.75" y="1306.5" clip-path="url(#clipPath2)" stroke="none"/>
    </g>
    <g text-rendering="geometricPrecision" stroke-miterlimit="1.45" shape-rendering="geometricPrecision" transform="matrix(2,0,0,2,336,-1646)" stroke-linecap="butt">
      <rect fill="none" x="763.75" width="160" height="33.75" y="1306.5" clip-path="url(#clipPath2)"/>
      <text x="829.7432" xml:space="preserve" y="1328.0889" clip-path="url(#clipPath2)" font-family="sans-serif" stroke="none">Hash</text>
    </g>
    <g fill="rgb(153,204,0)" text-rendering="geometricPrecision" shape-rendering="geometricPrecision" transform="matrix(2,0,0,2,336,-1646)" stroke="rgb(153,204,0)">
      <rect x="544.25" width="146.25" height="82.25" y="935" clip-path="url(#clipPath2)" stroke="none"/>
    </g>
    <g text-rendering="geometricPrecision" stroke-miterlimit="1.45" shape-rendering="geometricPrecision" transform="matrix(2,0,0,2,336,-1646)" stroke-linecap="butt">
      <rect fill="none" x="544.25" width="146.25" height="82.25" y="935" clip-path="url(#clipPath2)"/>
      <text x="579.6963" xml:space="preserve" y="973.4883" clip-path="url(#clipPath2)" font-family="sans-serif" stroke="none">Pairs ID-value</text>
      <text x="546.0049" xml:space="preserve" y="988.1895" clip-path="url(#clipPath2)" font-family="sans-serif" stroke="none">RPK Signature Scheme v2</text>
      <path fill="none" d="M710.5 1101.75 L710.5 928" clip-path="url(#clipPath2)"/>
    </g>
    <g stroke-linecap="butt" transform="matrix(0,-2,2,0,1738.2988,444.8017)" fill="white" text-rendering="geometricPrecision" shape-rendering="geometricPrecision" stroke="white" stroke-miterlimit="1.45">
      <rect x="0" width="58.0176" height="18.7012" y="0" clip-path="url(#clipPath3)" stroke="none"/>
      <text x="2" y="14.0645" clip-path="url(#clipPath3)" fill="black" font-family="sans-serif" stroke="none" xml:space="preserve">Block size</text>
    </g>
    <g stroke-linecap="butt" transform="matrix(2,0,0,2,336,-1646)" fill="rgb(204,204,204)" text-rendering="geometricPrecision" shape-rendering="geometricPrecision" stroke="rgb(204,204,204)" stroke-miterlimit="1.45">
      <path fill="none" d="M470.7904 1026.375 L536.7368 1099.6803" clip-path="url(#clipPath2)"/>
      <path fill="none" d="M469.7404 978.1998 L538.4154 902" clip-path="url(#clipPath2)"/>
      <path fill="none" d="M696.7773 931.6382 L763.7165 863.9431" clip-path="url(#clipPath2)"/>
      <path fill="none" d="M696.7772 1026.3586 L763.751 1086.767" clip-path="url(#clipPath2)"/>
      <path fill="none" d="M235.2557 1166.0835 L308.2904 980.125" clip-path="url(#clipPath2)"/>
      <path fill="none" d="M235.2518 1166.4675 L309.7675 1024.3676" clip-path="url(#clipPath2)"/>
      <path fill="none" d="M0.75 1278.5 L79.327 1240.5105" clip-path="url(#clipPath2)"/>
      <path fill="none" d="M470.7904 1352.5 L536.7368 1463.9303" clip-path="url(#clipPath2)"/>
      <path fill="none" d="M235.2676 1171.3828 L308.2904 1306.25" clip-path="url(#clipPath2)"/>
      <path fill="none" d="M235.2602 1167.9424 L309.7675 1350.4132" clip-path="url(#clipPath2)"/>
      <path fill="none" d="M469.7404 1304.3156 L538.4154 1190.375" clip-path="url(#clipPath2)"/>
      <path fill="none" d="M0.75 1077.75 L75.2318 1113.6759" clip-path="url(#clipPath2)"/>
      <path fill="none" d="M706.75 1194.25 L706.75 1315.5" clip-path="url(#clipPath2)" stroke="black"/>
    </g>
    <g stroke-linecap="butt" transform="matrix(0,-2,2,0,1730.7988,911.7852)" fill="white" text-rendering="geometricPrecision" shape-rendering="geometricPrecision" stroke="white" stroke-miterlimit="1.45">
      <rect x="0" width="58.0176" height="18.7012" y="0" clip-path="url(#clipPath4)" stroke="none"/>
      <text x="2" y="14.0645" clip-path="url(#clipPath4)" fill="black" font-family="sans-serif" stroke="none" xml:space="preserve">Block size</text>
    </g>
    <g stroke-linecap="butt" transform="matrix(2,0,0,2,336,-1646)" fill="rgb(204,204,204)" text-rendering="geometricPrecision" shape-rendering="geometricPrecision" stroke="rgb(204,204,204)" stroke-miterlimit="1.45">
      <path fill="none" d="M689.657 1274.7467 L763 1200.5" clip-path="url(#clipPath2)"/>
      <path fill="none" d="M690.5356 1306.512 L763.7361 1371.0322" clip-path="url(#clipPath2)"/>
      <path fill="none" d="M946.75 1206 L946.75 1372.8187" clip-path="url(#clipPath2)" stroke="black"/>
    </g>
    <g stroke-linecap="butt" transform="matrix(0,-2,2,0,2210.7988,990.8363)" fill="white" text-rendering="geometricPrecision" shape-rendering="geometricPrecision" stroke="white" stroke-miterlimit="1.45">
      <rect x="0" width="58.0176" height="18.7012" y="0" clip-path="url(#clipPath5)" stroke="none"/>
      <text x="2" y="14.0645" clip-path="url(#clipPath5)" fill="black" font-family="sans-serif" stroke="none" xml:space="preserve">Block size</text>
    </g>
  </g>
</svg>
